<svg width="66" height="66" viewBox="0 0 66 66" fill="none" xmlns="http://www.w3.org/2000/svg">
<circle cx="33" cy="33" r="33" fill="#FFD300"/>
<path fill-rule="evenodd" clip-rule="evenodd" d="M33.5587 11.6397V17.717C33.5587 18.0703 33.2669 18.3567 32.907 18.3567C32.5472 18.3567 32.2554 18.0703 32.2554 17.717V11.6397C32.2554 11.2864 32.5472 11 32.907 11C33.2669 11 33.5587 11.2864 33.5587 11.6397ZM23.4578 28.792C23.4578 33.9153 27.6883 38.0685 32.907 38.0685C38.1258 38.0685 42.3563 33.9153 42.3563 28.792C42.3563 23.6687 38.1258 19.5156 32.907 19.5156C27.6908 19.5212 23.4638 23.6712 23.4578 28.792ZM32.907 20.795C37.4061 20.795 41.0531 24.3752 41.0531 28.792C41.0531 33.2088 37.4061 36.7891 32.907 36.7891C28.408 36.7891 24.761 33.2088 24.761 28.792C24.7661 24.3774 28.4102 20.8 32.907 20.795ZM45.5687 39.6456L40.4641 42.0133C39.7594 40.7263 38.4074 39.9073 36.9196 39.8661L32.2074 39.739C31.4612 39.7181 30.7291 39.5325 30.0657 39.1961L29.5862 38.9521C27.1311 37.6958 24.2049 37.699 21.7523 38.9603L21.7822 37.8939C21.7921 37.5406 21.5086 37.2463 21.1487 37.2367L15.9815 37.097C15.6217 37.0874 15.3222 37.3657 15.3124 37.7189L15.0002 48.8508C14.9904 49.2041 15.2739 49.4984 15.6337 49.508L20.801 49.6477H20.8188C21.172 49.6477 21.4609 49.3718 21.4704 49.0254L21.4854 48.4929L22.8278 47.7872C23.3547 47.5089 23.9707 47.4427 24.5463 47.6026L32.5625 49.8113C32.5678 49.8129 32.5732 49.8143 32.5785 49.8156L32.596 49.8197L32.6048 49.8216C33.1842 49.9407 33.7747 50.0003 34.3665 50C35.6202 50.0006 36.8591 49.7354 37.9986 49.2219C38.0266 49.2094 38.0536 49.1947 38.0794 49.1782L49.7021 41.7977C49.9917 41.6138 50.0852 41.2405 49.9156 40.9456C49.0527 39.4425 47.1389 38.87 45.5687 39.6456ZM16.321 48.2467L16.5972 38.3936L20.4615 38.498L20.1853 48.3514L16.321 48.2467ZM37.4115 48.0793C35.9959 48.7065 34.4149 48.8796 32.8934 48.5744L24.8988 46.3713C23.999 46.1217 23.0359 46.2251 22.2127 46.6596L21.5267 47.0204L21.7103 40.4693C23.8841 39.0499 26.672 38.904 28.9871 40.0882L29.4666 40.3322C30.3047 40.757 31.229 40.9912 32.1717 41.0181L36.8843 41.1452C38.2079 41.1827 39.332 42.1079 39.6006 43.3811L32.5812 43.1909C32.2214 43.1812 31.922 43.4598 31.9118 43.8128C31.9019 44.1661 32.1857 44.4603 32.5453 44.47L40.2917 44.6793H40.3098C40.6627 44.679 40.9513 44.4031 40.9608 44.057C40.9688 43.779 40.9478 43.5007 40.8978 43.2271L46.1334 40.7985L46.1393 40.7959L46.1487 40.7913C46.8913 40.4224 47.7892 40.5458 48.4001 41.1009L37.4115 48.0793ZM38.4459 17.717V14.8383C38.4459 14.485 38.1541 14.1986 37.7943 14.1986C37.4344 14.1986 37.1426 14.485 37.1426 14.8383V17.717C37.1426 18.0703 37.4344 18.3567 37.7943 18.3567C38.1541 18.3567 38.4459 18.0703 38.4459 17.717ZM28.6715 14.8383V17.717C28.6715 18.0703 28.3797 18.3567 28.0198 18.3567C27.66 18.3567 27.3682 18.0703 27.3682 17.717V14.8383C27.3682 14.485 27.66 14.1986 28.0198 14.1986C28.3797 14.1986 28.6715 14.485 28.6715 14.8383ZM31.4582 33.3996H32.614L32.6774 33.1674C32.7878 32.7651 32.8982 32.3626 33.0082 31.9604C33.1738 31.3567 33.339 30.753 33.5043 30.1494C33.5516 30.1455 33.5985 30.1413 33.6454 30.1369C34.4216 30.0536 35.1622 29.8618 35.8565 29.4944C36.8807 28.9382 37.9309 27.9191 37.9963 26.6766C38.1076 24.5658 35.7144 24.0422 34.0895 24.0003C32.5664 23.992 30.8336 24.1716 29.3299 24.4236C29.248 24.6213 29.1704 24.8299 29.0938 25.0357C29.0625 25.12 29.0313 25.2039 29 25.2864C29.0399 25.2812 29.0798 25.276 29.1197 25.2709C30.0424 25.151 30.9655 25.0312 31.8943 24.9719C31.9602 24.9677 32.0298 24.9631 32.1024 24.9583C33.1262 24.8907 34.7704 24.7822 35.6139 25.0782L35.6583 25.0974C36.0386 25.2768 36.3082 25.4721 36.5271 25.8423C37.712 27.8474 35.2437 28.8655 33.7415 29.2844L34.8761 25.1432H33.7206L32.5128 29.5505L32.4481 29.5646L31.9729 29.5908L33.1916 25.1432H32.0361L29.7739 33.3996H30.9294L31.7785 30.3005L32.3206 30.2531L31.4582 33.3996Z" fill="black"/>
</svg>
