<svg width="66" height="66" viewBox="0 0 66 66" fill="none" xmlns="http://www.w3.org/2000/svg">
<circle cx="33" cy="33" r="33" fill="#FFD300"/>
<g clip-path="url(#clip0_191_118)">
<path d="M41 36.7333C40.1561 36.7333 39.3312 36.9836 38.6296 37.4524C37.9279 37.9212 37.3811 38.5876 37.0581 39.3672C36.7352 40.1468 36.6507 41.0047 36.8153 41.8324C36.98 42.66 37.3863 43.4203 37.983 44.017C38.5797 44.6137 39.34 45.0201 40.1676 45.1847C40.9953 45.3493 41.8532 45.2648 42.6328 44.9419C43.4124 44.619 44.0788 44.0721 44.5476 43.3704C45.0164 42.6688 45.2667 41.8439 45.2667 41C45.2654 39.8688 44.8155 38.7843 44.0156 37.9844C43.2157 37.1845 42.1312 36.7346 41 36.7333ZM41 44.2C40.3671 44.2 39.7484 44.0123 39.2222 43.6607C38.6959 43.3091 38.2858 42.8093 38.0436 42.2246C37.8014 41.6399 37.738 40.9964 37.8615 40.3757C37.985 39.755 38.2897 39.1848 38.7373 38.7373C39.1848 38.2897 39.755 37.985 40.3757 37.8615C40.9965 37.738 41.6399 37.8014 42.2246 38.0436C42.8093 38.2858 43.3091 38.6959 43.6607 39.2222C44.0123 39.7484 44.2 40.3671 44.2 41C44.1992 41.8484 43.8617 42.6619 43.2618 43.2618C42.6619 43.8617 41.8484 44.1992 41 44.2Z" fill="black"/>
<path d="M41 38.8667C40.5781 38.8667 40.1656 38.9918 39.8148 39.2262C39.464 39.4606 39.1905 39.7938 39.0291 40.1836C38.8676 40.5734 38.8253 41.0024 38.9077 41.4162C38.99 41.83 39.1932 42.2101 39.4915 42.5085C39.7899 42.8068 40.17 43.01 40.5838 43.0923C40.9976 43.1747 41.4266 43.1324 41.8164 42.9709C42.2062 42.8095 42.5394 42.536 42.7738 42.1852C43.0082 41.8344 43.1333 41.4219 43.1333 41C43.1333 40.4342 42.9086 39.8916 42.5085 39.4915C42.1084 39.0914 41.5658 38.8667 41 38.8667ZM41 42.0667C40.789 42.0667 40.5828 42.0041 40.4074 41.8869C40.232 41.7697 40.0953 41.6031 40.0145 41.4082C39.9338 41.2133 39.9127 40.9988 39.9538 40.7919C39.995 40.585 40.0966 40.3949 40.2458 40.2458C40.3949 40.0966 40.585 39.995 40.7919 39.9538C40.9988 39.9127 41.2133 39.9338 41.4082 40.0145C41.6031 40.0953 41.7697 40.232 41.8869 40.4074C42.0041 40.5828 42.0667 40.789 42.0667 41C42.0667 41.2829 41.9543 41.5542 41.7543 41.7543C41.5542 41.9543 41.2829 42.0667 41 42.0667Z" fill="black"/>
<path d="M48.3627 39.5067L47.4069 39.1243C47.2718 38.6642 47.0871 38.2202 46.856 37.8L47.2619 36.8528C47.3336 36.6893 47.3585 36.5092 47.3337 36.3324C47.3089 36.1556 47.2355 35.9892 47.1216 35.8517C46.9755 35.6773 46.8192 35.5077 46.6565 35.3456C46.4939 35.1835 46.3248 35.0256 46.1504 34.8805C46.0132 34.7666 45.847 34.6931 45.6703 34.6683C45.4937 34.6435 45.3137 34.6684 45.1504 34.7403L44.2 35.144C43.7793 34.9128 43.3348 34.7281 42.8741 34.5931L42.4933 33.64C42.4282 33.4738 42.3182 33.329 42.1755 33.2217C42.0328 33.1144 41.8631 33.0489 41.6853 33.0325C41.2288 32.9915 40.7696 32.9915 40.3131 33.0325C40.1356 33.0492 39.9662 33.1148 39.8238 33.2221C39.6815 33.3293 39.5717 33.474 39.5067 33.64L39.1243 34.5957C38.6643 34.73 38.2203 34.9139 37.8 35.144L36.8528 34.7381C36.6894 34.6661 36.5092 34.6411 36.3323 34.6658C36.1555 34.6906 35.989 34.7642 35.8517 34.8784C35.6773 35.0245 35.5077 35.1808 35.3456 35.3435C35.1835 35.5061 35.0256 35.6752 34.8805 35.8496C34.8136 35.9326 34.7613 36.0264 34.7259 36.1269C33.9799 35.8224 33.1817 35.6661 32.376 35.6667H32.2272C31.8791 35.2228 31.4048 34.8946 30.8667 34.7253V34.1531C31.6183 33.6479 32.2447 32.978 32.6984 32.1943C33.1521 31.4106 33.4211 30.5337 33.4848 29.6304C33.7434 29.5464 33.9822 29.4106 34.1867 29.2315C34.3913 29.0524 34.5573 28.8335 34.6747 28.5883C35.0596 27.7292 35.2175 26.7856 35.1333 25.848V24.6101C35.15 22.6115 34.3732 20.6879 32.9735 19.2613C31.5737 17.8346 29.6652 17.0214 27.6667 17C25.6681 17.0214 23.7596 17.8346 22.3599 19.2613C20.9601 20.6879 20.1834 22.6115 20.2 24.6101V25.848C20.1158 26.7868 20.2743 27.7315 20.6603 28.5915C20.7776 28.8362 20.9435 29.0545 21.1477 29.2332C21.352 29.4118 21.5904 29.5472 21.8485 29.6309C21.9124 30.5342 22.1813 31.4109 22.635 32.1946C23.0887 32.9782 23.7151 33.648 24.4667 34.1531V34.7253C23.9286 34.8946 23.4543 35.2228 23.1061 35.6667H22.9573C19.6725 35.6667 17 38.2053 17 41.3253V47.9333C17 48.2162 17.1124 48.4875 17.3124 48.6876C17.5125 48.8876 17.7838 49 18.0667 49H37.2667C37.5496 49 37.8209 48.8876 38.0209 48.6876C38.221 48.4875 38.3333 48.2162 38.3333 47.9333V47.1136C38.5904 47.2278 38.8544 47.3258 39.1237 47.4069L39.5061 48.3627C39.5712 48.5289 39.6813 48.6737 39.824 48.781C39.9667 48.8883 40.1364 48.9538 40.3141 48.9701C40.5408 48.9904 40.7701 49 41 49C41.2299 49 41.4592 48.9904 41.6864 48.9701C41.864 48.9536 42.0335 48.888 42.1759 48.7807C42.3184 48.6735 42.4283 48.5287 42.4933 48.3627L42.8757 47.4069C43.3358 47.2718 43.7798 47.0871 44.2 46.856L45.1472 47.2619C45.3107 47.3336 45.4908 47.3585 45.6676 47.3337C45.8444 47.3089 46.0108 47.2355 46.1483 47.1216C46.3227 46.9755 46.4923 46.8192 46.6544 46.6565C46.8165 46.4939 46.9744 46.3248 47.1195 46.1504C47.2334 46.0132 47.3069 45.847 47.3317 45.6703C47.3565 45.4937 47.3316 45.3137 47.2597 45.1504L46.856 44.2C47.0872 43.7793 47.2719 43.3348 47.4069 42.8741L48.3627 42.4917C48.5289 42.4266 48.6737 42.3166 48.781 42.1739C48.8883 42.0312 48.9538 41.8615 48.9701 41.6837C48.9904 41.4571 49 41.2277 49 40.9979C49 40.768 48.9904 40.5387 48.9701 40.3115C48.9532 40.1343 48.8874 39.9652 48.7802 39.8232C48.673 39.6811 48.5284 39.5715 48.3627 39.5067ZM27.6667 45.7573C27.2654 45.5737 26.8994 45.321 26.5856 45.0107L27.08 40.4667H28.2533L28.7461 45.0128C28.4326 45.3222 28.0672 45.5742 27.6667 45.7573ZM27.6667 37.4555C28.1268 37.5147 28.5703 37.666 28.9707 37.9003L28.3723 39.4H26.9611L26.3627 37.9067C26.7632 37.6715 27.2064 37.5182 27.6667 37.4555ZM25.5173 38.9957C25.534 38.934 25.5541 38.8733 25.5776 38.8139L26.0576 40.008L25.648 43.7867C24.8544 42.2624 24.3482 40.6051 24.1547 38.8976C24.335 39.0605 24.5306 39.2057 24.7387 39.3312C24.8102 39.3716 24.8901 39.3949 24.9722 39.3993C25.0542 39.4038 25.1362 39.3892 25.2117 39.3567C25.2871 39.3242 25.3541 39.2748 25.4073 39.2121C25.4605 39.1495 25.4985 39.0755 25.5184 38.9957H25.5173ZM29.688 43.7893L29.2779 40.008L29.7579 38.8139C29.7813 38.8733 29.8014 38.934 29.8181 38.9957C29.838 39.0755 29.876 39.1495 29.9292 39.2121C29.9824 39.2748 30.0494 39.3242 30.1249 39.3567C30.2003 39.3892 30.2823 39.4038 30.3644 39.3993C30.4464 39.3949 30.5263 39.3716 30.5979 39.3312C30.8068 39.2054 31.0033 39.0598 31.1845 38.8965C30.991 40.6056 30.4836 42.2644 29.688 43.7893ZM31.3947 36.3344C31.3424 36.9824 31.0443 37.5859 30.5616 38.0213C30.2692 37.534 29.8453 37.139 29.3387 36.8816C29.8395 36.6121 30.2698 36.2284 30.5947 35.7616C30.9146 35.8651 31.1947 36.0652 31.3963 36.3344H31.3947ZM27.6667 18.0667C29.3507 18.0874 30.9603 18.7638 32.1536 19.9523C33.347 21.1407 34.03 22.7475 34.0576 24.4315C33.8512 24.3783 33.6349 24.3768 33.4277 24.4272C32.9728 22.5781 31.1557 21.6309 30.0261 21.3483C29.8414 21.2979 29.648 21.2875 29.4589 21.3178C29.2699 21.348 29.0894 21.4182 28.9296 21.5237C27.424 22.5456 24.5477 23.0277 23.0859 23.0912C22.746 23.1097 22.4254 23.2549 22.1874 23.4982C21.9493 23.7415 21.8111 24.0651 21.8 24.4053C21.6252 24.3769 21.4465 24.3841 21.2747 24.4267C21.3035 22.7434 21.9872 21.1376 23.1807 19.9502C24.3741 18.7627 25.9833 18.0871 27.6667 18.0667ZM22.9083 29.496C22.8976 29.2978 22.8258 29.1078 22.7027 28.9521C22.5795 28.7964 22.4112 28.6827 22.2208 28.6267C22.0892 28.5917 21.9669 28.5282 21.8627 28.4405C21.7585 28.3528 21.675 28.2432 21.6181 28.1195C21.3069 27.4053 21.1858 26.6228 21.2667 25.848C21.2658 25.7839 21.2798 25.7204 21.3075 25.6626C21.3353 25.6047 21.3761 25.5541 21.4267 25.5147C21.4737 25.4774 21.5315 25.4564 21.5915 25.4549C21.614 25.4549 21.6364 25.458 21.6581 25.464C21.7257 25.4949 21.7793 25.5499 21.8085 25.6181C21.832 25.7484 21.9031 25.8653 22.008 25.9461C22.1129 26.0269 22.2441 26.0658 22.376 26.0552C22.508 26.0447 22.6313 25.9854 22.722 25.8889C22.8127 25.7924 22.8643 25.6657 22.8667 25.5333V24.4613C22.8641 24.3862 22.8903 24.3129 22.9398 24.2564C22.9893 24.1998 23.0585 24.1642 23.1333 24.1568C24.7717 24.0853 27.8267 23.5605 29.5216 22.4096C29.5573 22.3891 29.5968 22.376 29.6376 22.3711C29.6785 22.3663 29.72 22.3698 29.7595 22.3813C29.872 22.4091 32.4667 23.0837 32.4667 25.32V25.5333C32.4669 25.6673 32.5175 25.7962 32.6084 25.8945C32.6994 25.9929 32.824 26.0534 32.9575 26.0641C33.091 26.0747 33.2236 26.0348 33.329 25.9522C33.4344 25.8696 33.5049 25.7503 33.5264 25.6181C33.5553 25.5501 33.6085 25.4953 33.6757 25.4645C33.7157 25.4536 33.7576 25.4525 33.7981 25.4612C33.8386 25.4699 33.8764 25.4883 33.9083 25.5147C33.9589 25.5541 33.9996 25.6047 34.0274 25.6626C34.0552 25.7204 34.0691 25.7839 34.0683 25.848C34.1496 26.6221 34.029 27.4041 33.7184 28.1179C33.6604 28.2441 33.575 28.3557 33.4683 28.4447C33.3616 28.5336 33.2364 28.5976 33.1019 28.632C32.9143 28.6894 32.749 28.8031 32.6282 28.9577C32.5074 29.1122 32.4371 29.3001 32.4267 29.496C32.3634 30.7204 31.8359 31.8746 30.9516 32.7237C30.0673 33.5729 28.8926 34.0531 27.6667 34.0667C26.441 34.0527 25.2667 33.5723 24.3828 32.7232C23.4988 31.8741 22.9715 30.7201 22.9083 29.496ZM27.6667 35.1333C28.3977 35.1335 29.1219 34.9931 29.8 34.72V35.0203C29.6795 35.2571 29.1744 36.0384 27.6667 36.3717C26.1531 36.0373 25.6496 35.2517 25.5333 35.0224V34.72C26.2114 34.9931 26.9356 35.1335 27.6667 35.1333ZM24.7371 35.7595C25.0619 36.2263 25.4922 36.61 25.9931 36.8795C25.4865 37.1368 25.0627 37.5316 24.7701 38.0187C24.2872 37.5836 23.9891 36.9802 23.9371 36.3323C24.1384 36.0635 24.4178 35.8635 24.7371 35.7595ZM18.0667 41.3253C18.1084 40.0828 18.6361 38.9062 19.5361 38.0485C20.4362 37.1908 21.6369 36.7205 22.88 36.7387C22.9563 38.6411 23.4875 44.952 27.1333 46.6843V47.9333H18.0667V41.3253ZM28.2 47.9333V46.6827C31.8448 44.9499 32.3765 38.6432 32.4533 36.7387C33.3504 36.7498 34.2285 36.9982 34.9984 37.4587L35.144 37.8C34.9128 38.2207 34.7281 38.6652 34.5931 39.1259L33.64 39.5067C33.4738 39.5718 33.329 39.6818 33.2217 39.8245C33.1144 39.9672 33.0489 40.1369 33.0325 40.3147C33.0096 40.5408 33 40.7701 33 41C33 41.2299 33.0096 41.4592 33.0299 41.6864C33.0467 41.8643 33.1126 42.034 33.2204 42.1765C33.3281 42.319 33.4734 42.4287 33.64 42.4933L34.5957 42.8757C34.73 43.3357 34.9139 43.7797 35.144 44.2L34.7381 45.1472C34.6664 45.3107 34.6415 45.4908 34.6663 45.6676C34.6911 45.8444 34.7645 46.0108 34.8784 46.1483C35.0245 46.3227 35.1808 46.4923 35.3435 46.6544C35.5061 46.8165 35.6752 46.9744 35.8496 47.1195C35.9868 47.2334 36.153 47.3069 36.3297 47.3317C36.5063 47.3565 36.6863 47.3316 36.8496 47.2597L37.2667 47.0837V47.9333H28.2ZM47.9136 41.5243L46.7637 41.9845C46.6852 42.0159 46.6152 42.0654 46.5595 42.1291C46.5039 42.1928 46.4642 42.2689 46.4437 42.3509C46.3091 42.8938 46.0933 43.4132 45.8037 43.8917C45.76 43.9642 45.7342 44.046 45.7284 44.1303C45.7225 44.2147 45.7368 44.2993 45.7701 44.3771L46.2587 45.5179C46.1456 45.6501 46.0261 45.7787 45.9019 45.9024C45.7776 46.0261 45.6496 46.1461 45.5173 46.2592L44.3765 45.7707C44.2988 45.7371 44.2142 45.7226 44.1298 45.7284C44.0453 45.7343 43.9635 45.7603 43.8912 45.8043C43.4127 46.0939 42.8933 46.3096 42.3504 46.4443C42.2683 46.4647 42.1923 46.5044 42.1286 46.5601C42.0649 46.6157 42.0153 46.6857 41.984 46.7643L41.5237 47.9141C41.1748 47.9413 40.8242 47.9413 40.4752 47.9141L40.0149 46.7643C39.9836 46.6857 39.9341 46.6157 39.8703 46.5601C39.8066 46.5044 39.7306 46.4647 39.6485 46.4443C39.1057 46.3096 38.5862 46.0939 38.1077 45.8043C38.0354 45.7603 37.9536 45.7344 37.8692 45.7285C37.7847 45.7227 37.7001 45.7371 37.6224 45.7707L36.4816 46.2592C36.3493 46.1461 36.2208 46.0267 36.0971 45.9024C35.9733 45.7781 35.8533 45.6501 35.7403 45.5179L36.2288 44.3771C36.2621 44.2993 36.2764 44.2147 36.2706 44.1303C36.2647 44.046 36.2389 43.9642 36.1952 43.8917C35.9056 43.4132 35.6898 42.8938 35.5552 42.3509C35.5347 42.2689 35.4951 42.1928 35.4394 42.1291C35.3838 42.0654 35.3138 42.0159 35.2352 41.9845L34.0853 41.5243C34.0731 41.3509 34.0667 41.1755 34.0667 41C34.0667 40.8245 34.0731 40.6491 34.0864 40.4757L35.2363 40.0155C35.3148 39.9841 35.3848 39.9346 35.4405 39.8709C35.4961 39.8072 35.5358 39.7311 35.5563 39.6491C35.6909 39.1062 35.9067 38.5868 36.1963 38.1083C36.24 38.0358 36.2658 37.954 36.2716 37.8697C36.2775 37.7853 36.2632 37.7007 36.2299 37.6229L35.7413 36.4821C35.8544 36.3499 35.9739 36.2213 36.0981 36.0976C36.2224 35.9739 36.3504 35.8539 36.4827 35.7408L37.6235 36.2293C37.7012 36.2626 37.7858 36.2769 37.8702 36.2711C37.9546 36.2653 38.0364 36.2394 38.1088 36.1957C38.5873 35.9061 39.1067 35.6904 39.6496 35.5557C39.7317 35.5353 39.8077 35.4956 39.8714 35.4399C39.9351 35.3843 39.9847 35.3143 40.016 35.2357L40.4763 34.0859C40.8253 34.0587 41.1758 34.0587 41.5248 34.0859L41.9851 35.2357C42.0164 35.3143 42.066 35.3843 42.1297 35.4399C42.1934 35.4956 42.2694 35.5353 42.3515 35.5557C42.8943 35.6904 43.4138 35.9061 43.8923 36.1957C43.9647 36.2394 44.0465 36.2653 44.1309 36.2711C44.2153 36.2769 44.2998 36.2626 44.3776 36.2293L45.5184 35.7408C45.6507 35.8539 45.7792 35.9733 45.9029 36.0976C46.0267 36.2219 46.1467 36.3499 46.2597 36.4821L45.7712 37.6229C45.7379 37.7007 45.7236 37.7853 45.7294 37.8697C45.7353 37.954 45.7611 38.0358 45.8048 38.1083C46.0944 38.5868 46.3102 39.1062 46.4448 39.6491C46.4653 39.7311 46.505 39.8072 46.5606 39.8709C46.6162 39.9346 46.6862 39.9841 46.7648 40.0155L47.9147 40.4757C47.928 40.6491 47.9344 40.8245 47.9344 41C47.9344 41.1755 47.9269 41.3509 47.9136 41.5243Z" fill="black"/>
<path d="M46.8667 20.2H45.8C45.5171 20.2 45.2458 20.3124 45.0457 20.5124C44.8457 20.7125 44.7333 20.9838 44.7333 21.2667V23.4H40.4667V21.2667C40.4667 20.9838 40.3543 20.7125 40.1542 20.5124C39.9542 20.3124 39.6829 20.2 39.4 20.2H38.3333C37.7675 20.2 37.2249 20.4248 36.8248 20.8248C36.4248 21.2249 36.2 21.7675 36.2 22.3333V29.7707C36.2 29.8181 36.2 29.8661 36.2027 29.9141C36.2439 30.4711 36.4973 30.9911 36.9106 31.3668C37.3239 31.7424 37.8656 31.9452 38.424 31.9333H46.8667C47.4325 31.9333 47.9751 31.7086 48.3752 31.3085C48.7752 30.9084 49 30.3658 49 29.8V22.3333C49 21.7675 48.7752 21.2249 48.3752 20.8248C47.9751 20.4248 47.4325 20.2 46.8667 20.2ZM37.2667 22.3333C37.2667 22.0504 37.379 21.7791 37.5791 21.5791C37.7791 21.379 38.0504 21.2667 38.3333 21.2667H39.4V27.6667H38.3333C37.9588 27.667 37.5909 27.766 37.2667 27.9536V22.3333ZM46.8667 30.8667H38.424C38.1395 30.8752 37.8624 30.776 37.6478 30.5891C37.4333 30.4021 37.2972 30.1411 37.2667 29.8581C37.2667 29.8384 37.2667 29.8192 37.2667 29.8V29.7835C37.271 29.5034 37.3853 29.2364 37.5849 29.0399C37.7844 28.8434 38.0533 28.7333 38.3333 28.7333H39.4C39.6829 28.7333 39.9542 28.621 40.1542 28.4209C40.3543 28.2209 40.4667 27.9496 40.4667 27.6667V24.4667H44.7333V27.6667C44.7333 27.9496 44.8457 28.2209 45.0457 28.4209C45.2458 28.621 45.5171 28.7333 45.8 28.7333H46.8667C47.1496 28.7333 47.4209 28.8457 47.6209 29.0458C47.821 29.2458 47.9333 29.5171 47.9333 29.8C47.9333 30.0829 47.821 30.3542 47.6209 30.5542C47.4209 30.7543 47.1496 30.8667 46.8667 30.8667ZM47.9333 27.9531C47.6094 27.7649 47.2413 27.6661 46.8667 27.6667H45.8V21.2667H46.8667C47.1496 21.2667 47.4209 21.379 47.6209 21.5791C47.821 21.7791 47.9333 22.0504 47.9333 22.3333V27.9531Z" fill="black"/>
</g>
<defs>
<clipPath id="clip0_191_118">
<rect width="32" height="32" fill="white" transform="translate(17 17)"/>
</clipPath>
</defs>
</svg>
