<svg width="66" height="66" viewBox="0 0 66 66" fill="none" xmlns="http://www.w3.org/2000/svg">
<circle cx="33" cy="33" r="33" fill="#FFD300"/>
<path d="M28.2 18.3571H27V19.5357H28.2V18.3571Z" fill="black"/>
<path d="M39 18.3571H37.8V19.5357H39V18.3571Z" fill="black"/>
<path d="M50.4 44.2857H49.8V23.0714C49.8 21.7696 48.7255 20.7143 47.4 20.7143H41.4V16.5893C41.4 16.2639 41.1314 16 40.8 16H25.2C24.8687 16 24.6 16.2639 24.6 16.5893V20.7143H18.6C17.2745 20.7143 16.2 21.7696 16.2 23.0714V44.2857H15.6C15.2686 44.2857 15 44.5496 15 44.875V46.6429C15 47.9447 16.0745 49 17.4 49H48.6C49.9255 49 51 47.9447 51 46.6429V44.875C51 44.5496 50.7313 44.2857 50.4 44.2857ZM25.8 17.1786H40.2V32.5H39V21.3036C39 20.9781 38.7314 20.7143 38.4 20.7143H36.6V18.9464C36.6 18.621 36.3314 18.3571 36 18.3571H30C29.6687 18.3571 29.4 18.621 29.4 18.9464V20.7143H27.6C27.2687 20.7143 27 20.9781 27 21.3036V32.5H25.8V17.1786ZM32.403 30.1988C31.2224 30.4343 30.2997 31.3405 30.06 32.5H28.2V21.8929H30C30.3314 21.8929 30.6 21.629 30.6 21.3036V19.5357H35.4V21.3036C35.4 21.629 35.6687 21.8929 36 21.8929H37.8V32.5H35.94C35.6103 30.9052 34.0268 29.875 32.403 30.1988ZM34.6896 32.5H31.3104C31.6355 31.5835 32.6555 31.0994 33.5886 31.4187C34.1045 31.5952 34.5099 31.9934 34.6896 32.5ZM43.8 33.6786V32.5H41.4V24.8393H45.6V40.75H20.4V24.8393H24.6V32.5H22.2V33.6786H43.8ZM17.4 23.0714C17.4 22.4205 17.9372 21.8929 18.6 21.8929H24.6V23.6607H19.8C19.4687 23.6607 19.2 23.9246 19.2 24.25V41.3393C19.2 41.6647 19.4687 41.9286 19.8 41.9286H46.2C46.5314 41.9286 46.8 41.6647 46.8 41.3393V24.25C46.8 23.9246 46.5314 23.6607 46.2 23.6607H41.4V21.8929H47.4C48.0628 21.8929 48.6 22.4205 48.6 23.0714V44.2857H38.4C38.2409 44.2857 38.0883 44.3479 37.9758 44.4584L36.9516 45.4643H29.0484L28.0242 44.4584C27.9117 44.3479 27.7592 44.2857 27.6 44.2857H17.4V23.0714ZM49.8 46.6429C49.8 47.2938 49.2628 47.8214 48.6 47.8214H17.4C16.7372 47.8214 16.2 47.2938 16.2 46.6429V45.4643H27.3516L28.3758 46.4702C28.4883 46.5807 28.6409 46.6429 28.8 46.6429H37.2C37.3592 46.6429 37.5117 46.5807 37.6242 46.4702L38.6484 45.4643H49.8V46.6429Z" fill="black"/>
<path d="M33.6 43.1071H32.4V44.2857H33.6V43.1071Z" fill="black"/>
<path d="M27.6 35.4464H26.4V36.625H27.6V35.4464Z" fill="black"/>
<path d="M42 35.4464H28.8V36.625H42V35.4464Z" fill="black"/>
<path d="M39.6 37.8036H24V38.9821H39.6V37.8036Z" fill="black"/>
</svg>
