<svg width="66" height="66" viewBox="0 0 66 66" fill="none" xmlns="http://www.w3.org/2000/svg">
<circle cx="33" cy="33" r="33" fill="#FFD300"/>
<g clip-path="url(#clip0_191_116)">
<path d="M51.5372 32.9066C52.2972 31.6714 52.1064 30.098 51.0733 29.0804L49.5919 27.621C49.2558 27.2899 49.0822 26.83 49.1157 26.3594L49.2641 24.2751C49.3677 22.8219 48.4656 21.5132 47.0708 21.0926L45.1091 20.5013C44.6543 20.3641 44.2853 20.0356 44.0964 19.5999L43.2754 17.7057C42.7014 16.3813 41.2563 15.622 39.8403 15.8998L37.85 16.2905C37.3816 16.3824 36.8997 16.2631 36.5283 15.9632L34.9439 14.684C33.8175 13.7746 32.1825 13.7746 31.0561 14.684L29.4717 15.9632C29.1002 16.2631 28.6183 16.3823 28.15 16.2905L26.1595 15.8998C24.7435 15.6218 23.2987 16.3812 22.7245 17.7053L21.903 19.6C21.7141 20.0357 21.345 20.3642 20.8904 20.5013L18.9291 21.0926C17.5342 21.5131 16.6322 22.8217 16.7358 24.275L16.8842 26.3594C16.9178 26.83 16.7441 27.2898 16.408 27.621L14.9265 29.0804C13.8936 30.098 13.7028 31.6714 14.4628 32.9065L15.5582 34.6865C15.8051 35.0878 15.8639 35.5751 15.7198 36.0234L15.0789 38.0165C14.6343 39.3994 15.196 40.883 16.4451 41.6246L18.2204 42.6786C18.6273 42.9202 18.9063 43.3263 18.9858 43.7927L19.3352 45.8424C19.5809 47.2834 20.7722 48.3404 22.232 48.413L24.2656 48.5141C24.7413 48.5377 25.1795 48.7687 25.4677 49.1479L26.7076 50.7793C27.3053 51.5657 28.2349 51.9978 29.1817 51.9978C29.6213 51.9978 30.0649 51.9046 30.4804 51.7108L32.3186 50.8524C32.7517 50.6502 33.2484 50.6502 33.6813 50.8524L35.5194 51.7108C36.8303 52.3228 38.4171 51.9311 39.2925 50.7792L40.5319 49.1482C40.8202 48.7689 41.2584 48.5378 41.7342 48.5142L43.7681 48.4132C45.2281 48.3406 46.4193 47.2836 46.6649 45.8425L47.0143 43.7929C47.0938 43.3265 47.3728 42.9204 47.7796 42.6789L49.555 41.6248C50.8041 40.8832 51.3658 39.3995 50.9212 38.0167L50.2803 36.0236C50.1361 35.5751 50.1949 35.0878 50.4418 34.6867L51.5372 32.9066ZM49.1778 33.9087C48.7034 34.6796 48.5903 35.6159 48.8674 36.4776L49.5083 38.4707C49.7396 39.1904 49.4472 39.9625 48.7973 40.3484L47.0219 41.4025C46.24 41.8667 45.7039 42.647 45.5512 43.5432L45.2019 45.5928C45.074 46.3428 44.4541 46.8929 43.6943 46.9306L41.6604 47.0317C40.7461 47.0771 39.9041 47.5211 39.3502 48.25L38.1108 49.881C37.6552 50.4804 36.8294 50.6842 36.1472 50.3658L34.3091 49.5074C33.4771 49.1188 32.5226 49.1188 31.6906 49.5074L29.8524 50.3658C29.1702 50.6842 28.3445 50.4805 27.8889 49.8811L26.649 48.2498C26.0951 47.521 25.2532 47.0771 24.339 47.0317L22.3054 46.9306C21.5457 46.8929 20.9259 46.3428 20.798 45.5929L20.4486 43.5433C20.2958 42.647 19.7598 41.8667 18.9779 41.4025L17.2025 40.3485C16.5525 39.9626 16.2601 39.1904 16.4916 38.4708L17.1325 36.4777C17.4095 35.616 17.2964 34.6797 16.822 33.9087L15.7266 32.1286C15.3311 31.4859 15.4304 30.6671 15.968 30.1375L17.4495 28.6781C18.0954 28.0418 18.4288 27.1582 18.3645 26.2539L18.2161 24.1695C18.1622 23.4132 18.6315 22.7322 19.3575 22.5133L21.3188 21.922C22.1924 21.6587 22.9016 21.0274 23.2646 20.1904L24.0861 18.2957C24.3436 17.702 24.9373 17.3264 25.5682 17.3264C25.6695 17.3264 25.7717 17.3361 25.8736 17.3562L27.8641 17.7469C28.7644 17.9234 29.6901 17.6942 30.4039 17.118L31.9882 15.8385C32.5744 15.3653 33.4252 15.3653 34.0114 15.8385L35.5958 17.1177C36.3096 17.6941 37.2354 17.9232 38.1356 17.7466L40.126 17.3559C40.8631 17.2111 41.6149 17.6064 41.9136 18.2956L42.7347 20.1898C43.0978 21.0271 43.807 21.6584 44.6808 21.9218L46.6424 22.5132C47.3684 22.732 47.8378 23.4131 47.7839 24.1694L47.6355 26.2537C47.5711 27.1582 47.9045 28.0417 48.5505 28.678L50.0319 30.1374C50.5696 30.667 50.6688 31.4857 50.2733 32.1285L49.1778 33.9087Z" fill="black"/>
<path d="M24.0935 23.0218C23.8053 22.7306 23.3355 22.7282 23.0441 23.0165L23.0333 23.0274C22.7421 23.3156 22.7397 23.7855 23.028 24.0768C23.1732 24.2233 23.3642 24.2967 23.5554 24.2967C23.7441 24.2967 23.9328 24.2251 24.0775 24.082L24.0883 24.0712C24.3795 23.7829 24.3819 23.313 24.0935 23.0218Z" fill="black"/>
<path d="M46.8601 30.409C46.3386 27.6054 44.9932 25.0538 42.9694 23.03C38.4049 18.4656 31.3463 17.578 25.804 20.8717C25.4516 21.0811 25.3358 21.5364 25.5452 21.8887C25.7546 22.241 26.2099 22.3568 26.5622 22.1475C31.5205 19.2007 37.8359 19.9953 41.92 24.0795C45.5717 27.7313 46.6313 33.1641 44.6193 37.92C44.4596 38.2974 44.6361 38.7329 45.0135 38.8925C45.108 38.9325 45.2059 38.9513 45.3023 38.9513C45.5915 38.9513 45.8663 38.7812 45.9861 38.4982C47.067 35.9432 47.3692 33.146 46.8601 30.409Z" fill="black"/>
<path d="M42.9719 41.9219C42.6837 41.6307 42.2138 41.6283 41.9226 41.9166L41.9117 41.9275C41.6205 42.2157 41.6181 42.6856 41.9065 42.9769C42.0516 43.1234 42.2427 43.1968 42.4339 43.1968C42.6225 43.1968 42.8113 43.1252 42.9559 42.9821L42.9667 42.9713C43.2579 42.683 43.2603 42.2131 42.9719 41.9219Z" fill="black"/>
<path d="M40.4549 44.11C40.2455 43.7577 39.7902 43.6419 39.4379 43.8512C37.4363 45.0408 35.2141 45.6206 33.0063 45.6205C29.7449 45.6204 26.5154 44.3546 24.08 41.9192C20.4283 38.2675 19.3688 32.8346 21.3808 28.0787C21.5405 27.7013 21.3639 27.2659 20.9865 27.1062C20.6092 26.9466 20.1737 27.1231 20.014 27.5005C18.9331 30.0555 18.631 32.8527 19.14 35.5898C19.6616 38.3934 21.0069 40.945 23.0307 42.9688C25.7526 45.6906 29.3613 47.105 33.0065 47.105C35.4742 47.105 37.9589 46.4567 40.1961 45.1271C40.5483 44.9177 40.6642 44.4623 40.4549 44.11Z" fill="black"/>
<path d="M36.0666 26.9252C35.7098 26.7237 35.2571 26.8496 35.0557 27.2066L28.1764 39.3923C27.975 39.7492 28.1009 40.2018 28.4578 40.4032C28.5731 40.4683 28.6983 40.4993 28.8219 40.4993C29.0809 40.4993 29.3325 40.3635 29.4687 40.1219L36.348 27.9361C36.5495 27.5792 36.4235 27.1266 36.0666 26.9252Z" fill="black"/>
<path d="M37.4704 34.8132C35.752 34.8132 34.3538 36.2113 34.3538 37.9298C34.3538 39.6483 35.7519 41.0464 37.4704 41.0464C39.1889 41.0464 40.587 39.6484 40.587 37.9298C40.587 36.2113 39.189 34.8132 37.4704 34.8132ZM37.4704 39.5623C36.5702 39.5623 35.8379 38.83 35.8379 37.9298C35.8379 37.0296 36.5702 36.2972 37.4704 36.2972C38.3706 36.2972 39.1029 37.0296 39.1029 37.9298C39.1029 38.83 38.3706 39.5623 37.4704 39.5623Z" fill="black"/>
<path d="M28.5295 24.9522C26.811 24.9522 25.4129 26.3503 25.4129 28.0688C25.4129 29.7874 26.811 31.1854 28.5295 31.1854C30.248 31.1854 31.6461 29.7874 31.6461 28.0688C31.6461 26.3503 30.248 24.9522 28.5295 24.9522ZM28.5295 29.7013C27.6293 29.7013 26.897 28.969 26.897 28.0688C26.897 27.1686 27.6293 26.4362 28.5295 26.4362C29.4297 26.4362 30.162 27.1686 30.162 28.0688C30.162 28.969 29.4297 29.7013 28.5295 29.7013Z" fill="black"/>
</g>
<defs>
<clipPath id="clip0_191_116">
<rect width="38" height="38" fill="white" transform="translate(14 14)"/>
</clipPath>
</defs>
</svg>
