<svg width="20" height="20" viewBox="0 0 20 20" fill="none" xmlns="http://www.w3.org/2000/svg">
<path d="M9.99996 17.5C8.94741 16.6022 7.97179 15.6179 7.08329 14.5575C5.74996 12.965 4.16663 10.5933 4.16663 8.33333C4.16605 7.17913 4.50788 6.0507 5.14887 5.09085C5.78986 4.131 6.70119 3.38288 7.76752 2.94116C8.83385 2.49944 10.0073 2.38399 11.1392 2.60941C12.2712 2.83482 13.3109 3.39098 14.1266 4.2075C14.6698 4.74821 15.1003 5.39128 15.3932 6.09947C15.6861 6.80767 15.8357 7.56694 15.8333 8.33333C15.8333 10.5933 14.25 12.965 12.9166 14.5575C12.0281 15.6179 11.0525 16.6022 9.99996 17.5ZM9.99996 5.83333C9.33692 5.83333 8.70103 6.09672 8.23219 6.56556C7.76335 7.0344 7.49996 7.67029 7.49996 8.33333C7.49996 8.99637 7.76335 9.63226 8.23219 10.1011C8.70103 10.5699 9.33692 10.8333 9.99996 10.8333C10.663 10.8333 11.2989 10.5699 11.7677 10.1011C12.2366 9.63226 12.5 8.99637 12.5 8.33333C12.5 7.67029 12.2366 7.0344 11.7677 6.56556C11.2989 6.09672 10.663 5.83333 9.99996 5.83333Z" fill="#FFD300"/>
</svg>
