<svg width="36" height="36" viewBox="0 0 36 36" fill="none" xmlns="http://www.w3.org/2000/svg">
<path d="M18 0C13.2272 0 8.64563 1.89759 5.27344 5.27203C1.89777 8.64781 0.000935072 13.226 0 18C0 22.772 1.89844 27.3535 5.27344 30.728C8.64563 34.1024 13.2272 36 18 36C22.7728 36 27.3544 34.1024 30.7266 30.728C34.1016 27.3535 36 22.772 36 18C36 13.228 34.1016 8.64647 30.7266 5.27203C27.3544 1.89759 22.7728 0 18 0Z" fill="white"/>
<path d="M18 3C14.0227 3 10.2047 4.58133 7.39453 7.39336C4.58148 10.2065 3.00078 14.0217 3 18C3 21.9766 4.58203 25.7946 7.39453 28.6066C10.2047 31.4187 14.0227 33 18 33C21.9773 33 25.7953 31.4187 28.6055 28.6066C31.418 25.7946 33 21.9766 33 18C33 14.0234 31.418 10.2054 28.6055 7.39336C25.7953 4.58133 21.9773 3 18 3Z" fill="#0D98E0"/>
<path d="M8.30625 17.9741C13.4086 15.6881 16.8102 14.1809 18.5109 13.4527C23.3727 11.3735 24.3816 11.0123 25.0406 11.0001C25.1855 10.9977 25.5082 11.0346 25.7187 11.2096C25.8937 11.3573 25.943 11.557 25.9676 11.6972C25.9894 11.8372 26.0195 12.1565 25.9949 12.4057C25.7324 15.2519 24.5922 22.1588 24.0125 25.3468C23.7691 26.6957 23.2852 27.1479 22.8176 27.1921C21.8004 27.2883 21.0293 26.5013 20.0449 25.8379C18.5055 24.7992 17.6359 24.1529 16.1402 23.1396C14.4121 21.9684 15.5332 21.3247 16.5176 20.2728C16.7746 19.9974 21.2535 15.8082 21.3383 15.4282C21.3492 15.3807 21.3602 15.2035 21.2562 15.1102C21.1551 15.0165 21.0047 15.0486 20.8953 15.0739C20.7395 15.1099 18.2812 16.7827 13.5125 20.0922C12.8152 20.5855 12.1836 20.826 11.6148 20.8133C10.9914 20.7996 9.78828 20.45 8.89414 20.1513C7.80039 19.7848 6.92812 19.591 7.00468 18.9686C7.04296 18.6446 7.47773 18.313 8.30625 17.9741Z" fill="white"/>
</svg>
