<svg width="34" height="35" viewBox="0 0 34 35" fill="none" xmlns="http://www.w3.org/2000/svg">
<g clip-path="url(#clip0_25_370)">
<path d="M1.20261 20.0454V11.6931L6.17338 3.02269L16.0348 1.35223L23.3306 1.82951L29.2634 4.6136L32.3902 14L30.6264 24.8977L24.934 29.0341L14.5115 29.4318L10.6631 33.9659L9.21998 34.6022L8.49842 33.3295L8.2579 28.4772L3.76817 25.5341L1.20261 20.0454Z" fill="#7941F2"/>
<path d="M29.6998 3.40811C28.8246 2.61332 25.2794 0.0583177 17.3845 0.0247761C17.3845 0.0247761 8.06855 -0.527932 3.53047 3.60061C1.00621 6.10311 0.122129 9.7679 0.0206295 14.3135C-0.0808705 18.8591 -0.194139 27.3787 8.08914 29.6946H8.0965L8.08914 33.2223C8.08914 33.2223 8.03472 34.6514 8.98205 34.9387C10.1265 35.2946 10.8032 34.2066 11.8991 33.0371C12.4992 32.3939 13.326 31.4519 13.9541 30.7329C17.5537 31.0634 21.1837 30.7888 24.691 29.9206L24.4704 29.9673C25.6148 29.5983 32.0902 28.7773 33.1376 20.2591C34.232 11.4654 32.6168 5.9179 29.6998 3.40811ZM30.6589 19.6175C29.766 26.7269 24.5204 27.1789 23.5554 27.4852C21.4489 28.016 19.0305 28.3194 16.5401 28.3194C15.8252 28.3194 15.1162 28.2946 14.4145 28.245L14.5086 28.2508C14.5086 28.2508 10.9223 32.5369 9.80582 33.651C9.441 34.0127 9.03942 33.9835 9.04677 33.2617C9.04677 32.7906 9.07472 27.4021 9.07472 27.4021C2.0624 25.4741 2.4684 18.2175 2.55077 14.4273C2.63315 10.6371 3.35101 7.52207 5.48839 5.43082C9.33068 1.97894 17.2403 2.49082 17.2403 2.49082C23.9231 2.51853 27.1226 4.51498 27.8669 5.18436C30.3294 7.27707 31.5842 12.2821 30.6589 19.616V19.6175ZM21.0811 14.0933V14.1137C21.078 14.2273 21.0311 14.3354 20.95 14.4156C20.8688 14.4958 20.7597 14.5421 20.6452 14.5449C20.5306 14.5477 20.4193 14.5068 20.3343 14.4307C20.2493 14.3545 20.197 14.2489 20.1882 14.1356V14.1341C20.2182 13.8297 20.1811 13.5224 20.0796 13.2335C19.9782 12.9446 19.8146 12.6809 19.6004 12.4608C19.3861 12.2406 19.1263 12.0691 18.8387 11.9582C18.5511 11.8473 18.2426 11.7996 17.9346 11.8183H17.9405C17.8262 11.8095 17.7197 11.7576 17.6429 11.6731C17.5661 11.5887 17.525 11.4783 17.528 11.3646C17.5311 11.251 17.578 11.1429 17.6591 11.0625C17.7403 10.9822 17.8494 10.9359 17.9641 10.9331H17.9891H17.9876L18.0891 10.9316C18.4998 10.9315 18.9061 11.0151 19.2829 11.1771C19.6596 11.3392 19.9987 11.5763 20.2792 11.8738C20.5596 12.1712 20.7754 12.5226 20.9131 12.9062C21.0508 13.2898 21.1075 13.6973 21.0797 14.1035V14.0948L21.0811 14.0933ZM22.4801 14.8677C22.5492 11.9685 20.7222 9.69936 17.2536 9.44561C17.1934 9.44374 17.1342 9.42985 17.0796 9.40475C17.0249 9.37966 16.976 9.34388 16.9356 9.29957C16.8953 9.25526 16.8643 9.20333 16.8447 9.14689C16.8251 9.09045 16.8172 9.03066 16.8215 8.97111C16.8257 8.91157 16.8421 8.85349 16.8695 8.80036C16.897 8.74723 16.935 8.70014 16.9812 8.66192C17.0275 8.6237 17.0811 8.59514 17.1387 8.57795C17.1964 8.56075 17.257 8.55528 17.3168 8.56186H17.3153H17.3404C18.1635 8.56183 18.978 8.72862 19.7338 9.05198C20.4896 9.37535 21.1708 9.84846 21.7355 10.4423C22.3001 11.0361 22.7364 11.7381 23.0175 12.5051C23.2986 13.2721 23.4186 14.088 23.37 14.9027L23.3715 14.8866C23.3636 14.9997 23.3124 15.1054 23.2283 15.1822C23.1443 15.2589 23.0338 15.3009 22.9195 15.2994C22.8052 15.2979 22.6959 15.2531 22.6139 15.1741C22.5319 15.0952 22.4835 14.9882 22.4786 14.875V14.8633L22.4801 14.8677ZM25.7163 15.785V15.7879C25.7104 15.9009 25.661 16.0074 25.5784 16.0856C25.4958 16.1637 25.3861 16.2075 25.2719 16.2081C25.1578 16.2087 25.0477 16.1659 24.9643 16.0886C24.8809 16.0113 24.8305 15.9053 24.8234 15.7923C24.7881 10.2185 21.0385 7.18373 16.4945 7.15165C16.436 7.15165 16.378 7.14022 16.3239 7.11801C16.2699 7.09581 16.2207 7.06326 16.1793 7.02223C16.138 6.9812 16.1051 6.93248 16.0827 6.87887C16.0603 6.82526 16.0488 6.7678 16.0488 6.70977C16.0488 6.65175 16.0603 6.59429 16.0827 6.54068C16.1051 6.48707 16.138 6.43835 16.1793 6.39732C16.2207 6.35629 16.2699 6.32374 16.3239 6.30154C16.378 6.27933 16.436 6.2679 16.4945 6.2679C21.5828 6.3029 25.6722 9.78394 25.7134 15.7835L25.7163 15.785ZM24.944 22.4904V22.5035C24.1997 23.8029 22.8066 25.2379 21.3724 24.78L21.3592 24.7596C18.8021 23.8267 16.4052 22.5089 14.2527 20.8527L14.313 20.8964C13.2419 20.0533 12.2703 19.093 11.4166 18.0337L11.3886 17.9973C10.6156 17.0326 9.92574 16.0052 9.32627 14.926L9.26743 14.8108C8.55817 13.6516 7.97015 12.4236 7.51251 11.146L7.46838 11.0031C7.00648 9.58123 8.4466 8.20019 9.76463 7.46228H9.77787C10.0372 7.29772 10.3485 7.23367 10.6525 7.28237C10.9564 7.33106 11.2316 7.48908 11.4254 7.72623L11.4269 7.72915C11.4269 7.72915 12.2815 8.73977 12.6478 9.23998C12.992 9.70519 13.4554 10.4504 13.6952 10.866C13.8757 11.15 13.9492 11.4881 13.9026 11.8206C13.856 12.1531 13.6924 12.4586 13.4407 12.6831L13.4392 12.6846L12.6125 13.3408C12.4836 13.4642 12.384 13.6144 12.3209 13.7806C12.2578 13.9468 12.2328 14.1249 12.2477 14.3019V14.2975C12.6571 15.6498 13.3959 16.8815 14.3989 17.8838C15.402 18.8861 16.6385 19.6283 17.9994 20.0448L18.0611 20.0608C18.2388 20.0747 18.4174 20.0496 18.5842 19.9874C18.7509 19.9251 18.9018 19.8272 19.0261 19.7006L19.6881 18.881C19.9155 18.6303 20.2252 18.4677 20.5621 18.422C20.8991 18.3764 21.2414 18.4506 21.5283 18.6316L21.5224 18.6287C22.7184 19.3039 23.7525 20.0462 24.6954 20.8877L24.6792 20.8731C24.9184 21.0622 25.0776 21.3331 25.1255 21.6327C25.1735 21.9322 25.1066 22.2387 24.9381 22.4919L24.9411 22.4875L24.944 22.4904Z" fill="white"/>
</g>
<defs>
<clipPath id="clip0_25_370">
<rect width="33.8333" height="35" fill="white"/>
</clipPath>
</defs>
</svg>
