<svg width="391" height="907" viewBox="0 0 391 907" fill="none" xmlns="http://www.w3.org/2000/svg">
<path d="M0.5 0H390.5V907L0 886.5L0.5 0Z" fill="#172228"/>
<g clip-path="url(#clip0_302_2)">
<path d="M373.406 712.403C368.667 809.286 341.378 894.185 302.885 953.08C263.873 1012.77 217.703 1040.19 175.257 1038.11C132.811 1036.04 89.5371 1004.24 56.5361 941.03C23.9752 878.659 5.1018 791.503 9.84067 694.62C14.5795 597.738 41.8688 512.839 80.3613 453.943C119.374 394.251 165.544 366.835 207.99 368.912C250.436 370.988 293.71 402.779 326.711 465.993C359.271 528.364 378.145 615.521 373.406 712.403Z" stroke="#242D32" stroke-width="69"/>
</g>
<defs>
<clipPath id="clip0_302_2">
<rect width="452" height="606" fill="white" transform="translate(-23.3938 279) rotate(2.80031)"/>
</clipPath>
</defs>
</svg>
