<svg width="159" height="165" viewBox="0 0 159 165" fill="none" xmlns="http://www.w3.org/2000/svg">
<g filter="url(#filter0_d_1_1101)">
<circle cx="79.5" cy="75.5" r="75.5" fill="white"/>
</g>
<path d="M49.25 121H108.75C111.093 121 113 119.107 113 116.781V57.7187C113 57.6709 112.977 57.6316 112.974 57.5866C112.969 57.5219 112.952 57.4656 112.938 57.4037C112.893 57.2084 112.806 57.025 112.683 56.8666C112.663 56.8412 112.666 56.8103 112.646 56.785L89.9792 31.4725C89.9707 31.4641 89.9593 31.4641 89.9508 31.4556C89.7779 31.2762 89.5598 31.1461 89.319 31.0788C89.2652 31.0619 89.217 31.0563 89.1603 31.0478C89.0782 31.0338 89.0017 31 88.9167 31H49.25C46.9068 31 45 32.8928 45 35.2187V116.781C45 119.107 46.9068 121 49.25 121ZM90.3333 36.1047L108.43 56.3125H91.75C91.1267 56.3125 90.3333 55.1312 90.3333 54.2031V36.1047ZM47.8333 35.2187C47.8333 34.8458 47.9826 34.4881 48.2483 34.2244C48.5139 33.9607 48.8743 33.8125 49.25 33.8125H87.5V54.2031C87.5 56.4784 89.3558 59.125 91.75 59.125H110.167V116.781C110.167 117.154 110.017 117.512 109.752 117.776C109.486 118.039 109.126 118.187 108.75 118.187H49.25C48.4567 118.187 47.8333 117.569 47.8333 116.781V35.2187Z" fill="#7A7E86"/>
<path d="M60.5833 70.375H97.4167C97.7924 70.375 98.1527 70.2268 98.4184 69.9631C98.6841 69.6994 98.8333 69.3417 98.8333 68.9687C98.8333 68.5958 98.6841 68.2381 98.4184 67.9744C98.1527 67.7107 97.7924 67.5625 97.4167 67.5625H60.5833C60.2076 67.5625 59.8473 67.7107 59.5816 67.9744C59.3159 68.2381 59.1667 68.5958 59.1667 68.9687C59.1667 69.3417 59.3159 69.6994 59.5816 69.9631C59.8473 70.2268 60.2076 70.375 60.5833 70.375Z" fill="#7A7E86"/>
<path d="M60.5833 81.625H97.4167C97.7924 81.625 98.1527 81.4768 98.4184 81.2131C98.6841 80.9494 98.8333 80.5917 98.8333 80.2187C98.8333 79.8458 98.6841 79.4881 98.4184 79.2244C98.1527 78.9607 97.7924 78.8125 97.4167 78.8125H60.5833C60.2076 78.8125 59.8473 78.9607 59.5816 79.2244C59.3159 79.4881 59.1667 79.8458 59.1667 80.2187C59.1667 80.5917 59.3159 80.9494 59.5816 81.2131C59.8473 81.4768 60.2076 81.625 60.5833 81.625Z" fill="#7A7E86"/>
<path d="M60.5833 59.125H77.5833C77.9591 59.125 78.3194 58.9768 78.5851 58.7131C78.8507 58.4494 79 58.0917 79 57.7187C79 57.3458 78.8507 56.9881 78.5851 56.7244C78.3194 56.4607 77.9591 56.3125 77.5833 56.3125H60.5833C60.2076 56.3125 59.8473 56.4607 59.5816 56.7244C59.3159 56.9881 59.1667 57.3458 59.1667 57.7187C59.1667 58.0917 59.3159 58.4494 59.5816 58.7131C59.8473 58.9768 60.2076 59.125 60.5833 59.125Z" fill="#7A7E86"/>
<path d="M60.5833 92.875H97.4167C97.7924 92.875 98.1527 92.7268 98.4184 92.4631C98.6841 92.1994 98.8333 91.8417 98.8333 91.4687C98.8333 91.0958 98.6841 90.7381 98.4184 90.4744C98.1527 90.2107 97.7924 90.0625 97.4167 90.0625H60.5833C60.2076 90.0625 59.8473 90.2107 59.5816 90.4744C59.3159 90.7381 59.1667 91.0958 59.1667 91.4687C59.1667 91.8417 59.3159 92.1994 59.5816 92.4631C59.8473 92.7268 60.2076 92.875 60.5833 92.875Z" fill="#7A7E86"/>
<path d="M60.5833 104.125H97.4167C97.7924 104.125 98.1527 103.977 98.4184 103.713C98.6841 103.449 98.8333 103.092 98.8333 102.719C98.8333 102.346 98.6841 101.988 98.4184 101.724C98.1527 101.461 97.7924 101.312 97.4167 101.312H60.5833C60.2076 101.312 59.8473 101.461 59.5816 101.724C59.3159 101.988 59.1667 102.346 59.1667 102.719C59.1667 103.092 59.3159 103.449 59.5816 103.713C59.8473 103.977 60.2076 104.125 60.5833 104.125Z" fill="#7A7E86"/>
<defs>
<filter id="filter0_d_1_1101" x="0" y="0" width="159" height="165" filterUnits="userSpaceOnUse" color-interpolation-filters="sRGB">
<feFlood flood-opacity="0" result="BackgroundImageFix"/>
<feColorMatrix in="SourceAlpha" type="matrix" values="0 0 0 0 0 0 0 0 0 0 0 0 0 0 0 0 0 0 127 0" result="hardAlpha"/>
<feOffset dy="10"/>
<feGaussianBlur stdDeviation="2"/>
<feColorMatrix type="matrix" values="0 0 0 0 0 0 0 0 0 0 0 0 0 0 0 0 0 0 0.05 0"/>
<feBlend mode="normal" in2="BackgroundImageFix" result="effect1_dropShadow_1_1101"/>
<feBlend mode="normal" in="SourceGraphic" in2="effect1_dropShadow_1_1101" result="shape"/>
</filter>
</defs>
</svg>
