<svg width="159" height="165" viewBox="0 0 159 165" fill="none" xmlns="http://www.w3.org/2000/svg">
<g filter="url(#filter0_d_1_1104)">
<circle cx="79.5" cy="75.5" r="75.5" fill="white"/>
</g>
<path d="M116.677 106.235C117.408 106.235 118 105.643 118 104.914V43.5929C118 42.8635 117.408 42.272 116.677 42.272H103.893V32.321C103.893 31.6026 103.289 31 102.571 31H43.3226C42.5922 31 42 31.5915 42 32.321V111.225C42 111.954 42.5922 112.546 43.3226 112.546H56.1068V119.679C56.1068 120.409 56.699 121 57.4293 121H116.677C117.408 121 118 120.409 118 119.679V111.196C118 110.466 117.408 109.875 116.677 109.875C115.947 109.875 115.355 110.466 115.355 111.196V118.358H58.7517V44.9139H115.355V104.914C115.355 105.643 115.947 106.235 116.677 106.235ZM57.1085 42.3115C56.5284 42.4562 56.1068 42.9962 56.1068 43.5929V109.904H44.6451V33.6418H91.8281L57.1085 42.3115ZM101.248 42.272H68.172L101.248 34.0127V42.272Z" fill="#7A7E86"/>
<path d="M106.803 52.135H67.3039C66.5735 52.135 65.9813 52.7265 65.9813 53.456V71.7729C65.9813 72.5024 66.5735 73.0939 67.3039 73.0939H106.803C107.533 73.0939 108.125 72.5024 108.125 71.7729V53.456C108.125 52.7263 107.533 52.135 106.803 52.135ZM105.48 70.4519H68.6264V54.7768H105.48V70.4519Z" fill="#7A7E86"/>
<path d="M91.2852 77.497H67.3039C66.5735 77.497 65.9813 78.0885 65.9813 78.818V109.816C65.9813 110.545 66.5735 111.137 67.3039 111.137H91.2852C92.0156 111.137 92.6078 110.545 92.6078 109.816V78.8179C92.6078 78.0884 92.0156 77.497 91.2852 77.497ZM89.9628 108.495H68.6264V80.1389H89.9628V108.495Z" fill="#7A7E86"/>
<path d="M106.803 81.724H96.9278C96.1974 81.724 95.6052 82.3156 95.6052 83.045C95.6052 83.7745 96.1974 84.366 96.9278 84.366H106.803C107.533 84.366 108.125 83.7745 108.125 83.045C108.125 82.3154 107.533 81.724 106.803 81.724Z" fill="#7A7E86"/>
<path d="M106.803 87.3599H96.9278C96.1974 87.3599 95.6052 87.9514 95.6052 88.6809C95.6052 89.4104 96.1974 90.0019 96.9278 90.0019H106.803C107.533 90.0019 108.125 89.4104 108.125 88.6809C108.125 87.9514 107.533 87.3599 106.803 87.3599Z" fill="#7A7E86"/>
<path d="M106.803 92.996H96.9278C96.1974 92.996 95.6052 93.5875 95.6052 94.317C95.6052 95.0465 96.1974 95.638 96.9278 95.638H106.803C107.533 95.638 108.125 95.0465 108.125 94.317C108.125 93.5873 107.533 92.996 106.803 92.996Z" fill="#7A7E86"/>
<path d="M106.803 98.6319H96.9278C96.1974 98.6319 95.6052 99.2234 95.6052 99.9529C95.6052 100.682 96.1974 101.274 96.9278 101.274H106.803C107.533 101.274 108.125 100.682 108.125 99.9529C108.125 99.2234 107.533 98.6319 106.803 98.6319Z" fill="#7A7E86"/>
<path d="M106.803 104.268H96.9278C96.1974 104.268 95.6052 104.859 95.6052 105.589C95.6052 106.318 96.1974 106.91 96.9278 106.91H106.803C107.533 106.91 108.125 106.318 108.125 105.589C108.125 104.859 107.533 104.268 106.803 104.268Z" fill="#7A7E86"/>
<defs>
<filter id="filter0_d_1_1104" x="0" y="0" width="159" height="165" filterUnits="userSpaceOnUse" color-interpolation-filters="sRGB">
<feFlood flood-opacity="0" result="BackgroundImageFix"/>
<feColorMatrix in="SourceAlpha" type="matrix" values="0 0 0 0 0 0 0 0 0 0 0 0 0 0 0 0 0 0 127 0" result="hardAlpha"/>
<feOffset dy="10"/>
<feGaussianBlur stdDeviation="2"/>
<feColorMatrix type="matrix" values="0 0 0 0 0 0 0 0 0 0 0 0 0 0 0 0 0 0 0.05 0"/>
<feBlend mode="normal" in2="BackgroundImageFix" result="effect1_dropShadow_1_1104"/>
<feBlend mode="normal" in="SourceGraphic" in2="effect1_dropShadow_1_1104" result="shape"/>
</filter>
</defs>
</svg>
