<svg width="159" height="165" viewBox="0 0 159 165" fill="none" xmlns="http://www.w3.org/2000/svg">
<g filter="url(#filter0_d_1_1107)">
<circle cx="79.5" cy="75.5" r="75.5" fill="white"/>
</g>
<path d="M103.82 50.9451C103.82 46.7659 100.421 43.3657 96.2434 43.3657C92.0649 43.3657 88.6659 46.7659 88.6659 50.9451C88.6659 55.1249 92.0649 58.5251 96.2434 58.5251C100.421 58.5251 103.82 55.1249 103.82 50.9451ZM91.0084 50.9451C91.0084 48.0578 93.3571 45.709 96.2434 45.709C99.1298 45.709 101.478 48.0578 101.478 50.9451C101.478 53.833 99.1298 56.1818 96.2434 56.1818C93.3571 56.1818 91.0084 53.8324 91.0084 50.9451Z" fill="#7A7E86"/>
<path d="M83.3369 46.927C83.9839 46.927 84.5082 46.4026 84.5082 45.7554C84.5082 45.1082 83.9839 44.5837 83.3369 44.5837H80.2577C79.6107 44.5837 79.0864 45.1082 79.0864 45.7554C79.0864 46.4026 79.6107 46.927 80.2577 46.927H83.3369Z" fill="#7A7E86"/>
<path d="M57.1058 46.927H72.6698C73.3168 46.927 73.8411 46.4026 73.8411 45.7554C73.8411 45.1082 73.3168 44.5837 72.6698 44.5837H57.1058C56.4589 44.5837 55.9346 45.1082 55.9346 45.7554C55.9346 46.4026 56.4589 46.927 57.1058 46.927Z" fill="#7A7E86"/>
<path d="M57.1058 57.3064H61.1195C61.7665 57.3064 62.2908 56.782 62.2908 56.1348C62.2908 55.4876 61.7665 54.9631 61.1195 54.9631H57.1058C56.4589 54.9631 55.9346 55.4876 55.9346 56.1348C55.9346 56.782 56.4589 57.3064 57.1058 57.3064Z" fill="#7A7E86"/>
<path d="M68.708 54.9631C68.061 54.9631 67.5367 55.4876 67.5367 56.1348C67.5367 56.782 68.061 57.3064 68.708 57.3064H71.2452C71.8922 57.3064 72.4165 56.782 72.4165 56.1348C72.4165 55.4876 71.8922 54.9631 71.2452 54.9631H68.708Z" fill="#7A7E86"/>
<path d="M57.1058 52.1167H83.3369C83.9839 52.1167 84.5082 51.5923 84.5082 50.9451C84.5082 50.2979 83.9839 49.7734 83.3369 49.7734H57.1058C56.4589 49.7734 55.9346 50.2979 55.9346 50.9451C55.9346 51.5923 56.4589 52.1167 57.1058 52.1167Z" fill="#7A7E86"/>
<path d="M60.1765 71.5323H99.579C101.918 71.5323 103.82 69.6286 103.82 67.2889C103.82 64.9493 101.918 63.0462 99.579 63.0462H60.1765C57.8376 63.0462 55.9346 64.9493 55.9346 67.2889C55.9346 69.6286 57.8376 71.5323 60.1765 71.5323ZM60.1765 65.3895H99.579C100.626 65.3895 101.478 66.2412 101.478 67.2889C101.478 68.3367 100.626 69.189 99.579 69.189H60.1765C59.1292 69.189 58.2771 68.3367 58.2771 67.2889C58.2771 66.2412 59.1292 65.3895 60.1765 65.3895Z" fill="#7A7E86"/>
<path d="M60.1765 82.2798H99.579C101.918 82.2798 103.82 80.3761 103.82 78.0365C103.82 75.6969 101.918 73.7938 99.579 73.7938H60.1765C57.8376 73.7938 55.9346 75.6969 55.9346 78.0365C55.9346 80.3761 57.8376 82.2798 60.1765 82.2798ZM60.1765 76.1371H99.579C100.626 76.1371 101.478 76.9894 101.478 78.0365C101.478 79.0842 100.626 79.9365 99.579 79.9365H60.1765C59.1292 79.9365 58.2771 79.0842 58.2771 78.0365C58.2771 76.9894 59.1292 76.1371 60.1765 76.1371Z" fill="#7A7E86"/>
<path d="M60.1765 93.0274H99.579C101.918 93.0274 103.82 91.1243 103.82 88.7846C103.82 86.445 101.918 84.5413 99.579 84.5413H60.1765C57.8376 84.5413 55.9346 86.445 55.9346 88.7846C55.9346 91.1243 57.8376 93.0274 60.1765 93.0274ZM60.1765 86.8846H99.579C100.626 86.8846 101.478 87.7369 101.478 88.7846C101.478 89.8317 100.626 90.6841 99.579 90.6841H60.1765C59.1292 90.6841 58.2771 89.8317 58.2771 88.7846C58.2771 87.7369 59.1292 86.8846 60.1765 86.8846Z" fill="#7A7E86"/>
<path d="M60.1765 103.775H87.8163C90.1552 103.775 92.0582 101.872 92.0582 99.5322C92.0582 97.1926 90.1552 95.2889 87.8163 95.2889H60.1765C57.8376 95.2889 55.9346 97.1926 55.9346 99.5322C55.9346 101.872 57.8376 103.775 60.1765 103.775ZM60.1765 97.6322H87.8163C88.8636 97.6322 89.7151 98.4845 89.7151 99.5322C89.7151 100.58 88.8636 101.432 87.8163 101.432H60.1765C59.1292 101.432 58.2771 100.58 58.2771 99.5322C58.2771 98.4845 59.1292 97.6322 60.1765 97.6322Z" fill="#7A7E86"/>
<path d="M124.334 98.6304H119.908V94.7198C119.908 93.7204 119.305 92.8601 118.445 92.4803L120.161 84.6103C120.654 82.3488 120.056 79.9439 118.561 78.1769C117.136 76.493 115.054 75.5271 112.848 75.5271C112.479 75.5271 112.114 75.5564 111.755 75.6089V39.8923C111.755 37.7462 110.009 36 107.864 36H51.891C49.7456 36 48 37.7462 48 39.8923V52.4623C48 53.1095 48.5243 53.634 49.1713 53.634C49.8182 53.634 50.3425 53.1095 50.3425 52.4623V39.8923C50.3425 39.0381 51.0371 38.3433 51.891 38.3433H107.864C108.718 38.3433 109.412 39.0381 109.412 39.8923V76.363C108.552 76.8075 107.777 77.4186 107.135 78.1769C106.25 79.2234 105.668 80.4921 105.455 81.8457C105.354 82.485 105.79 83.0851 106.428 83.1859C107.069 83.2872 107.667 82.8507 107.769 82.2114C107.915 81.2816 108.314 80.4097 108.923 79.6911C109.902 78.5341 111.333 77.8704 112.848 77.8704C114.364 77.8704 115.794 78.5341 116.773 79.6911C117.8 80.9049 118.211 82.557 117.872 84.1109L116.093 92.2721H109.603L108.51 87.2583C108.372 86.6264 107.749 86.2258 107.116 86.3632C106.484 86.5012 106.083 87.1258 106.221 87.7577L107.251 92.4803C106.391 92.8601 105.787 93.7204 105.787 94.7198V98.6304H101.362C99.3403 98.6304 97.6954 100.275 97.6954 102.297V105.283C97.6954 107.305 99.3403 108.95 101.362 108.95H101.424L102.135 112.107C102.262 112.669 102.479 113.19 102.769 113.656H51.891C51.0371 113.656 50.3425 112.961 50.3425 112.107V57.8388C50.3425 57.1916 49.8182 56.6672 49.1713 56.6672C48.5243 56.6672 48 57.1916 48 57.8388V112.107C48 114.253 49.7456 116 51.891 116L118.713 115.985C121.053 115.985 123.047 114.39 123.561 112.107L124.272 108.95H124.334C126.355 108.95 128 107.305 128 105.283V102.297C128 100.275 126.355 98.6304 124.334 98.6304ZM108.13 94.7198C108.13 94.6624 108.177 94.6154 108.234 94.6154H117.462C117.519 94.6154 117.565 94.6624 117.565 94.7198V98.6304H108.13V94.7198ZM121.276 111.591C121.004 112.799 119.95 113.641 118.713 113.641H106.983C105.746 113.641 104.693 112.799 104.42 111.591L103.826 108.95H121.87L121.276 111.591ZM125.657 105.283C125.657 106.013 125.064 106.607 124.334 106.607H101.362C100.632 106.607 100.039 106.013 100.039 105.283V102.297C100.039 101.567 100.632 100.974 101.362 100.974H124.334C125.064 100.974 125.657 101.567 125.657 102.297V105.283Z" fill="#7A7E86"/>
<defs>
<filter id="filter0_d_1_1107" x="0" y="0" width="159" height="165" filterUnits="userSpaceOnUse" color-interpolation-filters="sRGB">
<feFlood flood-opacity="0" result="BackgroundImageFix"/>
<feColorMatrix in="SourceAlpha" type="matrix" values="0 0 0 0 0 0 0 0 0 0 0 0 0 0 0 0 0 0 127 0" result="hardAlpha"/>
<feOffset dy="10"/>
<feGaussianBlur stdDeviation="2"/>
<feColorMatrix type="matrix" values="0 0 0 0 0 0 0 0 0 0 0 0 0 0 0 0 0 0 0.05 0"/>
<feBlend mode="normal" in2="BackgroundImageFix" result="effect1_dropShadow_1_1107"/>
<feBlend mode="normal" in="SourceGraphic" in2="effect1_dropShadow_1_1107" result="shape"/>
</filter>
</defs>
</svg>
