<svg width="87" height="123" viewBox="0 0 87 123" fill="none" xmlns="http://www.w3.org/2000/svg">
<path fill-rule="evenodd" clip-rule="evenodd" d="M86.7384 115.085L14.6391 116.524L0.0808105 113.358L11.8169 122.21L86.7384 115.085Z" fill="#D9DADA"/>
<path d="M43.9461 0.439581C44.3426 0.373463 44.7508 0.330681 45.1629 0.319013C48.6732 0.210112 51.9075 2.29089 54.5121 5.94684C57.0155 9.45889 58.9553 14.4644 59.9855 20.3762C60.4248 22.8848 60.6968 25.5762 60.7862 28.4037C60.8212 29.6327 60.8212 30.8462 60.7862 32.048H58.9786C59.0175 30.8656 59.0175 29.6639 58.9786 28.4543C58.897 25.7434 58.6288 23.1376 58.2011 20.6873V20.6834C57.2176 15.04 55.3906 10.2912 53.0387 6.99307C50.7918 3.83495 48.0784 2.03809 45.2134 2.12365C44.9063 2.13532 44.5875 2.16643 44.2532 2.22477C40.463 2.88596 37.0771 6.65859 34.6669 12.2242C32.3462 17.5837 30.9622 24.565 30.9933 32.048H29.1857C29.1546 24.316 30.5968 17.0858 33.0109 11.5086C35.6621 5.38678 39.5145 1.21355 43.9422 0.439581H43.9461Z" fill="#5B5B5B"/>
<path fill-rule="evenodd" clip-rule="evenodd" d="M13.9122 23.7209L82.4234 24.7088L86.7384 115.085L12.3844 120.413L13.9122 23.7209Z" fill="#F9B205"/>
<path fill-rule="evenodd" clip-rule="evenodd" d="M11.4243 25.8795L13.9122 23.7209L12.3844 120.413L8.48539 112.634L11.4243 25.8795Z" fill="#A57C18"/>
<path fill-rule="evenodd" clip-rule="evenodd" d="M4.96337 24.6311L11.4243 25.8796L8.4854 112.634L0.0808105 113.358L4.96337 24.6311Z" fill="#DC9F0C"/>
<path fill-rule="evenodd" clip-rule="evenodd" d="M12.3844 120.413L8.4854 112.635L0.0808105 113.358L12.3844 120.413Z" fill="#F9B205"/>
<path d="M35.5027 33.6582C36.4903 33.6582 37.2909 32.8572 37.2909 31.8692C37.2909 30.8811 36.4903 30.0801 35.5027 30.0801C34.5151 30.0801 33.7145 30.8811 33.7145 31.8692C33.7145 32.8572 34.5151 33.6582 35.5027 33.6582Z" fill="#2B2A29"/>
<path d="M35.5027 29.7766C36.0819 29.7766 36.6028 30.01 36.9799 30.3872H36.9838C37.3609 30.7684 37.5941 31.2896 37.5941 31.8691C37.5941 32.4447 37.3609 32.9697 36.9838 33.347H36.9799C36.6028 33.7281 36.0819 33.9615 35.5027 33.9615C34.9273 33.9615 34.4025 33.7281 34.0255 33.347C33.6445 32.9697 33.4113 32.4447 33.4113 31.8691C33.4113 31.2896 33.6445 30.7684 34.0255 30.3872C34.4025 30.01 34.9273 29.7766 35.5027 29.7766ZM36.5562 30.8151C36.2879 30.5467 35.9147 30.3795 35.5027 30.3795C35.0945 30.3795 34.7214 30.5467 34.4531 30.8151C34.181 31.0873 34.0177 31.4568 34.0177 31.8691C34.0177 32.2813 34.181 32.6508 34.4531 32.9231V32.9192C34.7214 33.1914 35.0945 33.3587 35.5027 33.3587C35.9147 33.3587 36.2879 33.1914 36.5562 32.9231C36.8244 32.6508 36.9916 32.2813 36.9916 31.8691C36.9916 31.4568 36.8244 31.0873 36.5562 30.8151Z" fill="#C5C6C6"/>
<path d="M65.3501 33.6582C66.3376 33.6582 67.1382 32.8572 67.1382 31.8692C67.1382 30.8811 66.3376 30.0801 65.3501 30.0801C64.3625 30.0801 63.5619 30.8811 63.5619 31.8692C63.5619 32.8572 64.3625 33.6582 65.3501 33.6582Z" fill="#2B2A29"/>
<path d="M65.3539 29.7766C65.9293 29.7766 66.4502 30.01 66.8311 30.3872C67.2082 30.7684 67.4414 31.2896 67.4414 31.8691C67.4414 32.4447 67.2082 32.9697 66.8311 33.347C66.4502 33.7281 65.9293 33.9615 65.3539 33.9615C64.7747 33.9615 64.2499 33.7281 63.8729 33.347C63.4958 32.9697 63.2586 32.4447 63.2586 31.8691C63.2586 31.2896 63.4958 30.7684 63.8729 30.3872C64.2499 30.01 64.7747 29.7766 65.3539 29.7766ZM66.4035 30.8151C66.1353 30.5467 65.7621 30.3795 65.3539 30.3795C64.9419 30.3795 64.5687 30.5467 64.3004 30.8151C64.0322 31.0873 63.865 31.4568 63.865 31.8691C63.865 32.2813 64.0322 32.6508 64.3004 32.9231V32.9192C64.5687 33.1914 64.9419 33.3587 65.3539 33.3587C65.7621 33.3587 66.1353 33.1914 66.4035 32.9231C66.6718 32.6508 66.8389 32.2813 66.8389 31.8691C66.8389 31.4568 66.6718 31.0873 66.4035 30.8151Z" fill="#C5C6C6"/>
<path d="M49.3612 0.439581C49.7577 0.373463 50.162 0.330681 50.578 0.319013C54.0883 0.210112 57.3226 2.29089 59.9271 5.94684C62.4306 9.45889 64.3704 14.4644 65.4006 20.3762C65.8398 22.8848 66.1119 25.5762 66.1974 28.4037C66.2208 29.0727 66.3802 31.5268 66.0886 31.978C65.7659 32.4758 64.5375 32.5497 64.4093 31.449C64.3276 30.7295 64.4249 29.5744 64.4015 28.7576C64.4015 28.6565 64.3976 28.5554 64.3937 28.4543C64.3121 25.7434 64.0438 23.1376 63.6162 20.6873V20.6834C62.6327 15.04 60.8056 10.2912 58.4538 6.99307C56.203 3.83495 53.4935 2.03809 50.6285 2.12365C50.3214 2.13532 50.0026 2.16643 49.6683 2.22477C45.8781 2.88596 42.4922 6.65859 40.0821 12.2242C37.6797 17.8442 36.3929 24.9111 36.4395 31.0134C36.4434 31.6941 36.2724 32.3086 35.4405 32.2619C34.3675 32.2036 34.5775 30.9473 34.6008 30.1967C34.663 28.4309 34.8146 26.4902 35.0168 24.7361C35.5532 20.2323 36.63 15.6857 38.426 11.5086C41.0772 5.38678 44.9296 1.21355 49.3573 0.439581H49.3612Z" fill="#5B5B5B"/>
<path d="M50.5663 93.5185C61.8099 93.5185 70.9245 84.3993 70.9245 73.1502C70.9245 61.9011 61.8099 52.7819 50.5663 52.7819C39.3228 52.7819 30.2081 61.9011 30.2081 73.1502C30.2081 84.3993 39.3228 93.5185 50.5663 93.5185Z" fill="#FEFEFE" stroke="#F9B205" stroke-width="2" stroke-miterlimit="22.9256"/>
<path fill-rule="evenodd" clip-rule="evenodd" d="M41.5009 70.7271L41.5048 78.7546C43.1103 78.7119 44.7702 78.813 46.3213 78.7119C46.7061 78.6885 46.9821 78.7624 47.3514 78.813C47.9345 78.8869 47.8957 78.8558 48.2494 79.1747C50.1231 80.8704 51.1144 80.8782 53.5751 81.1232C55.3361 81.2982 56.2341 80.9715 56.5801 79.3069C57.1477 79.1319 57.6491 78.4552 57.8124 77.8562C57.9057 77.5101 57.8434 77.3 57.8784 77.1056C57.9056 76.9578 58.1934 76.775 58.3061 76.6544C59.1963 75.6743 58.8386 74.7837 58.9242 74.5736C59.2352 74.2391 59.4995 74.0136 59.5928 73.4457C59.6939 72.839 59.5851 72.2673 59.3479 71.8356C58.7376 70.7115 56.5257 70.5832 55.5227 70.2682C53.2408 69.5525 55.2895 67.6584 55.2118 65.5543C55.169 64.3564 54.6208 63.2519 53.8356 62.6451C52.9065 61.9334 51.4487 61.8478 51.1455 63.2402C50.9161 64.3059 51.4954 65.1654 50.5896 66.8456C50.0804 67.7829 49.4195 68.5335 48.7509 69.3503C47.779 70.5482 47.7246 70.6765 45.8043 70.6727C44.3737 70.6688 42.9043 70.7349 41.5009 70.7271ZM52.3117 64.5976C52.3117 65.9821 52.1679 66.6317 51.3671 67.8023C51.1494 68.1213 50.8929 68.5258 50.6402 68.8758C50.061 69.6848 48.8753 71.2716 47.9267 71.6839C46.6867 72.2167 46.2008 71.5905 46.0258 73.4496C45.9325 74.4608 45.9364 76.0477 46.2668 76.8722C46.71 77.969 47.8141 77.3428 48.7587 78.039C48.9453 78.179 49.058 78.3229 49.229 78.4746C49.6255 78.8246 50.3952 79.3808 50.9589 79.5014C51.9696 79.7231 53.1553 79.9331 54.2515 79.9331C56.4207 79.937 54.3449 78.3852 55.9426 78.2607C56.6773 78.2024 56.7044 77.4323 56.6034 77.1367C56.2885 76.2577 56.6734 76.3744 57.2059 76.0593C58.2594 75.4409 57.4392 74.6125 57.5092 74.1302C57.5558 73.8308 57.7269 73.7335 57.9834 73.6402C58.4966 73.4535 58.6209 72.8234 58.2672 72.419C57.9912 72.1039 57.5053 71.89 57.0505 71.7811C55.6665 71.4427 52.7588 71.4933 53.3574 68.3235C53.5363 67.3629 54.1465 66.48 54.0066 65.3365C53.9055 64.5042 53.2175 63.2246 52.3817 63.3141C52.1874 63.7108 52.3117 64.1153 52.3117 64.5976Z" fill="#F9B205"/>
</svg>
