<svg width="87" height="123" viewBox="0 0 87 123" fill="none" xmlns="http://www.w3.org/2000/svg">
<path fill-rule="evenodd" clip-rule="evenodd" d="M86.7345 115.085L14.639 116.524L0.0769043 113.358L11.8129 122.21L86.7345 115.085Z" fill="#D9DADA"/>
<path d="M43.9422 0.439582C44.3387 0.373463 44.7468 0.330681 45.1589 0.319013C48.6731 0.210112 51.9035 2.29089 54.5081 5.94684C57.0154 9.45889 58.9513 14.4644 59.9815 20.3762C60.4208 22.8848 60.6968 25.5762 60.7823 28.4037C60.8173 29.6327 60.8173 30.8462 60.7823 32.048H58.9786C59.0135 30.8656 59.0135 29.6639 58.9786 28.4543C58.893 25.7434 58.6287 23.1376 58.2011 20.6873V20.6834C57.2137 15.04 55.3866 10.2912 53.0386 6.99307C50.7878 3.83495 48.0744 2.03809 45.2094 2.12365C44.9023 2.13532 44.5836 2.16643 44.2493 2.22477C40.4591 2.88596 37.0731 6.65859 34.663 12.2242C32.3422 17.5837 30.9583 24.565 30.9894 32.048H29.1856C29.1545 24.3161 30.5929 17.0858 33.0069 11.5086C35.6581 5.38678 39.5144 1.21355 43.9383 0.439582H43.9422Z" fill="#5B5B5B"/>
<path fill-rule="evenodd" clip-rule="evenodd" d="M13.9121 23.7209L82.4195 24.7088L86.7345 115.085L12.3844 120.413L13.9121 23.7209Z" fill="#EC694A"/>
<path fill-rule="evenodd" clip-rule="evenodd" d="M11.4242 25.8795L13.9121 23.7209L12.3844 120.413L8.48532 112.634L11.4242 25.8795Z" fill="#9C3520"/>
<path fill-rule="evenodd" clip-rule="evenodd" d="M4.95946 24.6311L11.4242 25.8796L8.48532 112.634L0.0769043 113.358L4.95946 24.6311Z" fill="#D74A2A"/>
<path fill-rule="evenodd" clip-rule="evenodd" d="M12.3844 120.413L8.48532 112.635L0.0769043 113.358L12.3844 120.413Z" fill="#E0613E"/>
<path d="M35.5026 33.6582C36.4902 33.6582 37.2908 32.8572 37.2908 31.8692C37.2908 30.8811 36.4902 30.0801 35.5026 30.0801C34.5151 30.0801 33.7144 30.8811 33.7144 31.8692C33.7144 32.8572 34.5151 33.6582 35.5026 33.6582Z" fill="#2B2A29"/>
<path d="M35.5026 29.7766C36.078 29.7766 36.5989 30.01 36.9798 30.3911C37.3569 30.7684 37.5941 31.2896 37.5941 31.8691C37.5941 32.4447 37.3569 32.9697 36.9798 33.347C36.5989 33.7281 36.078 33.9615 35.5026 33.9615C34.9234 33.9615 34.3986 33.7281 34.0215 33.347C33.6445 32.9697 33.4112 32.4447 33.4112 31.8691C33.4112 31.2896 33.6445 30.7684 34.0215 30.3911C34.3986 30.01 34.9234 29.7766 35.5026 29.7766ZM36.5522 30.8151C36.284 30.5467 35.9108 30.3795 35.5026 30.3795C35.0906 30.3795 34.7174 30.5467 34.4492 30.8151C34.1809 31.0873 34.0138 31.4568 34.0138 31.8691C34.0138 32.2813 34.1809 32.6547 34.4492 32.9231C34.7174 33.1914 35.0906 33.3587 35.5026 33.3587C35.9108 33.3587 36.284 33.1914 36.5522 32.9231C36.8243 32.6547 36.9876 32.2813 36.9876 31.8691C36.9876 31.4568 36.8205 31.0873 36.5522 30.8151Z" fill="#C5C6C6"/>
<path d="M65.35 33.6582C66.3376 33.6582 67.1382 32.8572 67.1382 31.8692C67.1382 30.8811 66.3376 30.0801 65.35 30.0801C64.3624 30.0801 63.5618 30.8811 63.5618 31.8692C63.5618 32.8572 64.3624 33.6582 65.35 33.6582Z" fill="#2B2A29"/>
<path d="M65.35 29.7766C65.9253 29.7766 66.4501 30.01 66.8272 30.3911C67.2082 30.7684 67.4414 31.2896 67.4414 31.8691C67.4414 32.4447 67.2082 32.9697 66.8272 33.347C66.4501 33.7281 65.9253 33.9615 65.35 33.9615C64.7708 33.9615 64.2499 33.7281 63.8689 33.347C63.4918 32.9697 63.2586 32.4447 63.2586 31.8691C63.2586 31.2896 63.4918 30.7684 63.8689 30.3911C64.2499 30.01 64.7708 29.7766 65.35 29.7766ZM66.4035 30.8151C66.1314 30.5467 65.7621 30.3795 65.35 30.3795C64.9379 30.3795 64.5647 30.5467 64.2965 30.8151C64.0283 31.0873 63.8611 31.4568 63.8611 31.8691C63.8611 32.2813 64.0283 32.6547 64.2965 32.9231C64.5647 33.1914 64.9379 33.3587 65.35 33.3587C65.7621 33.3587 66.1314 33.1914 66.4035 32.9231C66.6717 32.6547 66.835 32.2813 66.835 31.8691C66.835 31.4568 66.6717 31.0873 66.3996 30.8151H66.4035Z" fill="#C5C6C6"/>
<path d="M49.3573 0.439582C49.7538 0.373463 50.162 0.330681 50.5741 0.319013C54.0844 0.210112 57.3187 2.29089 59.9232 5.94684C62.4267 9.45889 64.3665 14.4644 65.3966 20.3762C65.8359 22.8848 66.1119 25.5762 66.1975 28.4037C66.2208 29.0727 66.3763 31.5268 66.0847 31.978C65.766 32.4758 64.5336 32.5497 64.4093 31.4529C64.3237 30.7295 64.4209 29.5744 64.4015 28.7576C64.3976 28.6565 64.3937 28.5554 64.3937 28.4543C64.3082 25.7434 64.04 23.1376 63.6162 20.6873V20.6834C62.6288 15.04 60.8018 10.2912 58.4538 6.99307C56.203 3.83495 53.4896 2.03809 50.6246 2.12365C50.3175 2.13532 49.9987 2.16643 49.6644 2.22477C45.8742 2.88596 42.4883 6.65859 40.0781 12.2242C37.6796 17.8442 36.389 24.9111 36.4356 31.0134C36.4395 31.6941 36.2724 32.3086 35.4366 32.2619C34.3637 32.2036 34.5736 30.9473 34.6008 30.1967C34.663 28.4348 34.8107 26.4902 35.0167 24.7361C35.5532 20.2323 36.6261 15.6857 38.4221 11.5086C41.0733 5.38678 44.9257 1.21355 49.3534 0.439582H49.3573Z" fill="#5B5B5B"/>
<path d="M50.5624 93.5185C61.8059 93.5185 70.9206 84.3993 70.9206 73.1502C70.9206 61.9011 61.8059 52.7819 50.5624 52.7819C39.3188 52.7819 30.2041 61.9011 30.2041 73.1502C30.2041 84.3993 39.3188 93.5185 50.5624 93.5185Z" fill="#FEFEFE" stroke="#EC694A" stroke-width="2" stroke-miterlimit="22.9256"/>
<path fill-rule="evenodd" clip-rule="evenodd" d="M39.5766 71.7577V74.5425C40.2219 74.7253 40.8478 74.9664 41.4892 75.1959C42.0451 75.3903 41.9129 75.3165 42.0879 75.861C42.1812 76.1565 42.2861 76.4482 42.395 76.7244C42.7526 77.6228 43.017 77.5645 42.5971 78.3696C42.3794 78.7857 41.9168 79.6102 41.8158 80.0381L43.6778 81.9049C44.2221 81.7766 45.6137 80.8237 45.9675 80.9015C46.053 80.9209 46.8188 81.3449 47.0676 81.4421C47.5458 81.6249 47.849 81.7299 48.3621 81.796L49.1746 84.1452H51.9541C52.1329 83.5112 52.37 82.9201 52.5838 82.3017C52.7549 81.8038 52.6655 81.8349 53.1242 81.6755C54.6675 81.1387 54.9901 80.707 55.7171 81.0882C56.1563 81.3177 57.0077 81.7999 57.4508 81.9049L59.3129 80.0381C59.1885 79.5169 58.2827 78.0856 58.3022 77.8056C58.306 77.7589 58.757 76.8838 58.8231 76.7205C59.0097 76.246 59.1418 75.8804 59.204 75.3398L61.552 74.5425V71.7577C60.9028 71.5749 60.2808 71.3299 59.6355 71.1043C59.0835 70.906 59.2118 70.9838 59.0408 70.4393C58.5043 68.763 58.0573 68.8369 58.5315 67.9307C58.7453 67.5145 59.2118 66.69 59.3129 66.2621L57.4508 64.3953C56.9066 64.5236 55.511 65.4726 55.1573 65.3987C55.0717 65.3793 54.3098 64.9514 54.061 64.8581C53.5829 64.6753 53.2797 64.5664 52.7665 64.5003L51.9541 62.155H49.1746C48.9919 62.789 48.7547 63.3802 48.5448 63.9986C48.2727 64.792 48.4282 64.3953 47.0637 64.9553C46.2513 65.2898 46.2552 65.5932 45.4388 65.177C44.9451 64.9242 44.2454 64.512 43.7478 64.3875L41.7847 66.3088C41.9324 66.83 42.3406 67.5262 42.5932 68.024C43.0209 68.8641 42.6399 68.8641 42.0451 70.5909C41.8896 71.0421 41.8974 70.9643 41.4154 71.1277C40.7973 71.3416 40.2064 71.5788 39.5766 71.7577ZM50.1931 69.6264C45.5749 70.4315 46.846 77.1289 51.2738 76.3938C55.7481 75.6548 54.5508 68.868 50.1931 69.6264ZM49.886 67.7129C46.6944 68.2029 44.7119 70.9332 45.1278 73.9085C45.5166 76.6622 48.0939 79.0424 51.3243 78.5874C54.0766 78.1984 56.4518 75.6198 55.9969 72.3878C55.6199 69.6847 53.0464 67.2306 49.886 67.7129Z" fill="#EC694A"/>
</svg>
