<svg width="87" height="123" viewBox="0 0 87 123" fill="none" xmlns="http://www.w3.org/2000/svg">
<path fill-rule="evenodd" clip-rule="evenodd" d="M86.7384 115.085L14.6391 116.524L0.0808105 113.358L11.8169 122.21L86.7384 115.085Z" fill="#D9DADA"/>
<path d="M43.946 0.439582C44.3426 0.369574 44.7469 0.330681 45.1629 0.319013C48.6732 0.210112 51.9075 2.29089 54.512 5.94295C57.0155 9.45889 58.9514 14.4644 59.9855 20.3762C60.4208 22.8848 60.6968 25.5762 60.7823 28.4037C60.8212 29.6288 60.8212 30.8462 60.7862 32.048H58.9786C59.0136 30.8656 59.0136 29.6639 58.9786 28.4543C58.897 25.7434 58.6287 23.1376 58.2011 20.6873V20.6834C57.2176 15.0362 55.3905 10.2912 53.0387 6.99307C50.7879 3.83495 48.0784 2.03809 45.2134 2.12365C44.9063 2.13143 44.5836 2.16643 44.2532 2.22477C40.463 2.88596 37.0732 6.65859 34.6669 12.2242C32.3461 17.5837 30.9583 24.565 30.9894 32.048H29.1857C29.1546 24.316 30.5968 17.0858 33.0109 11.5086C35.6621 5.38678 39.5145 1.21355 43.9422 0.439582H43.946Z" fill="#5B5B5B"/>
<path fill-rule="evenodd" clip-rule="evenodd" d="M13.9122 23.7209L82.4235 24.7088L86.7384 115.085L12.3845 120.413L13.9122 23.7209Z" fill="#4BB79D"/>
<path fill-rule="evenodd" clip-rule="evenodd" d="M11.4243 25.8795L13.9122 23.7209L12.3845 120.413L8.48544 112.634L11.4243 25.8795Z" fill="#169175"/>
<path fill-rule="evenodd" clip-rule="evenodd" d="M4.96337 24.6311L11.4243 25.8796L8.4854 112.634L0.0808105 113.358L4.96337 24.6311Z" fill="#1EA486"/>
<path fill-rule="evenodd" clip-rule="evenodd" d="M12.3844 120.413L8.4854 112.635L0.0808105 113.358L12.3844 120.413Z" fill="#4BB79D"/>
<path d="M35.5027 33.6582C36.4903 33.6582 37.2909 32.8572 37.2909 31.8692C37.2909 30.8811 36.4903 30.0801 35.5027 30.0801C34.5151 30.0801 33.7145 30.8811 33.7145 31.8692C33.7145 32.8572 34.5151 33.6582 35.5027 33.6582Z" fill="#2B2A29"/>
<path d="M35.5027 29.7766C36.0781 29.7766 36.6029 30.01 36.9799 30.3872C37.3609 30.7684 37.5942 31.2896 37.5942 31.8691C37.5942 32.4447 37.3609 32.9697 36.9799 33.347C36.6029 33.7281 36.0781 33.9615 35.5027 33.9615C34.9235 33.9615 34.4026 33.7281 34.0255 33.347C33.6446 32.9697 33.4114 32.4447 33.4114 31.8691C33.4114 31.2896 33.6446 30.7684 34.0255 30.3872C34.4026 30.01 34.9235 29.7766 35.5027 29.7766ZM36.5562 30.8151C36.288 30.5467 35.9148 30.3795 35.5027 30.3795C35.0907 30.3795 34.7214 30.5467 34.4493 30.8151C34.181 31.0873 34.0139 31.4568 34.0139 31.8691C34.0139 32.2813 34.181 32.6508 34.4493 32.9231V32.9192C34.7214 33.1914 35.0907 33.3587 35.5027 33.3587C35.9148 33.3587 36.288 33.1914 36.5562 32.9231C36.8245 32.6508 36.9916 32.2813 36.9916 31.8691C36.9916 31.4568 36.8245 31.0873 36.5562 30.8151Z" fill="#C5C6C6"/>
<path d="M65.3501 33.6582C66.3377 33.6582 67.1383 32.8572 67.1383 31.8692C67.1383 30.8811 66.3377 30.0801 65.3501 30.0801C64.3625 30.0801 63.5619 30.8811 63.5619 31.8692C63.5619 32.8572 64.3625 33.6582 65.3501 33.6582Z" fill="#2B2A29"/>
<path d="M65.3501 29.7766C65.9293 29.7766 66.4502 30.01 66.8273 30.3872H66.8312C67.2083 30.7684 67.4415 31.2896 67.4415 31.8691C67.4415 32.4447 67.2083 32.9697 66.8312 33.347H66.8273C66.4502 33.7281 65.9293 33.9615 65.3501 33.9615C64.7748 33.9615 64.25 33.7281 63.8729 33.347C63.4919 32.9697 63.2586 32.4447 63.2586 31.8691C63.2586 31.2896 63.4919 30.7684 63.8729 30.3872C64.25 30.01 64.7748 29.7766 65.3501 29.7766ZM66.4036 30.8151C66.1354 30.5467 65.7622 30.3795 65.3501 30.3795C64.9419 30.3795 64.5687 30.5467 64.3005 30.8151C64.0283 31.0873 63.8651 31.4568 63.8651 31.8691C63.8651 32.2813 64.0283 32.6508 64.3005 32.9231V32.9192C64.5687 33.1914 64.9419 33.3587 65.3501 33.3587C65.7622 33.3587 66.1354 33.1914 66.4036 32.9231C66.6719 32.6508 66.839 32.2813 66.839 31.8691C66.839 31.4568 66.6719 31.0873 66.4036 30.8151Z" fill="#C5C6C6"/>
<path d="M49.3613 0.439582C49.7578 0.369574 50.162 0.330681 50.578 0.319013C54.0883 0.210112 57.3226 2.29089 59.9271 5.94295C62.4306 9.45889 64.3665 14.4644 65.4005 20.3762C65.8359 22.8848 66.1119 25.5762 66.1974 28.4037C66.2208 29.0727 66.3801 31.5268 66.0886 31.978C65.7659 32.4758 64.5375 32.5497 64.4092 31.449C64.3276 30.7295 64.421 29.5744 64.4015 28.7576C64.3976 28.6565 64.3976 28.5554 64.3937 28.4543C64.312 25.7434 64.0438 23.1376 63.6162 20.6873V20.6834C62.6327 15.0362 60.8056 10.2912 58.4538 6.99307C56.203 3.83495 53.4896 2.03809 50.6246 2.12365C50.3214 2.13143 49.9987 2.16643 49.6683 2.22477C45.8742 2.88596 42.4883 6.65859 40.082 12.2242C37.6796 17.8442 36.389 24.9111 36.4356 31.0134C36.4434 31.6941 36.2723 32.3086 35.4404 32.2619C34.3636 32.2036 34.5736 30.9473 34.6008 30.1967C34.663 28.4309 34.8107 26.4902 35.0167 24.7361C35.5532 20.2284 36.6261 15.6857 38.426 11.5086C41.0733 5.38678 44.9295 1.21355 49.3573 0.439582H49.3613Z" fill="#5B5B5B"/>
<path d="M50.5663 93.5185C61.8098 93.5185 70.9245 84.3993 70.9245 73.1502C70.9245 61.9011 61.8098 52.7819 50.5663 52.7819C39.3227 52.7819 30.2081 61.9011 30.2081 73.1502C30.2081 84.3993 39.3227 93.5185 50.5663 93.5185Z" fill="#FEFEFE" stroke="#4BB79D" stroke-width="2" stroke-miterlimit="22.9256"/>
<path fill-rule="evenodd" clip-rule="evenodd" d="M44.4358 68.2847C39.6816 69.2181 38.9585 75.5071 43.1024 77.6346C45.6254 78.9297 47.6973 77.5879 49.0268 76.3005C50.3524 75.0171 51.6663 73.3058 52.8908 71.8862C53.8665 70.7544 56.8327 69.047 58.2438 71.2172C60.0942 74.0564 56.8948 78.2607 53.2951 74.5853C52.4282 73.7025 51.0288 73.5547 51.2932 75.0404C51.5187 76.3161 54.3603 78.1518 56.5566 78.0002C61.4392 77.6657 62.1389 70.3421 58.1777 68.5841C51.0521 65.4182 47.503 80.326 43.0364 75.0132C41.4348 73.1113 42.8731 70.4393 44.9801 70.2371C46.3679 70.1049 47.1297 70.7427 47.7556 71.4195C49.1667 72.9635 49.9558 71.7539 49.812 70.9488C49.6254 69.8793 47.1181 67.7557 44.4358 68.2847Z" fill="#4BB79D"/>
</svg>
