<svg width="15" height="15" viewBox="0 0 15 15" fill="none" xmlns="http://www.w3.org/2000/svg">
<path fill-rule="evenodd" clip-rule="evenodd" d="M6.33237 14.3129H4.59775L5.89257 9.63578L5.07754 9.70347L3.80426 14.3129H2.06964L5.46506 2.03538H7.19968L5.36972 8.65111L6.08325 8.61111L6.18167 8.58957L7.99317 2.03538H9.72472L8.02393 8.1957C10.2783 7.57106 13.9813 6.05713 12.2036 3.07544C11.8745 2.52464 11.4716 2.23539 10.8996 1.96769L10.8319 1.93999C9.47867 1.4692 6.7445 1.68767 5.25285 1.78306C3.79811 1.87538 2.35259 2.06308 0.910156 2.25078C1.07009 1.82922 1.23001 1.37996 1.40532 0.967636C3.65971 0.592231 6.26163 0.324525 8.54678 0.336833C10.9826 0.401452 14.5749 1.17995 14.4088 4.3155C14.3104 6.16483 12.7326 7.67875 11.1979 8.50649C10.1553 9.05113 9.04502 9.3373 7.87938 9.46346C7.80864 9.46962 7.7379 9.47577 7.66716 9.47885C7.42112 10.3774 7.172 11.2759 6.92288 12.1744C6.7568 12.7713 6.59379 13.3683 6.42771 13.9683L6.33237 14.3129Z" fill="#B33921"/>
</svg>
