<svg width="124" height="81" viewBox="0 0 124 81" fill="none" xmlns="http://www.w3.org/2000/svg">
<path d="M96.3056 33.3668C98.5725 31.2396 101.286 29.4292 104.204 27.6707C106.205 26.464 108.918 24.6941 108.543 22.9852C108.292 21.8407 106.211 20.7238 104.203 21.6188C104.064 21.6805 103.937 21.7562 103.818 21.8366C103.793 20.6208 104.706 19.3057 106.212 18.3336C106.698 18.0203 106.82 17.5604 106.468 17.3006C105.759 16.7776 105.05 16.2543 104.341 15.7309C104.069 15.5303 103.845 15.1287 103.324 15.2275C102.711 15.3433 102.106 15.5222 101.52 15.7281C99.9305 16.2862 98.5268 17.1452 97.5085 18.1376C97.086 18.5493 96.3011 18.7134 95.8219 18.4806C94.3415 17.7622 92.4034 17.447 90.3157 17.5236C88.9981 17.572 87.6282 17.8101 86.3142 18.1954C86.0212 18.2817 85.7281 18.3794 85.4434 18.4852C85.0492 18.6314 84.8629 18.7378 84.5062 18.6278C83.8375 18.4213 83.5411 17.9278 83.4141 17.445C82.9007 15.4834 85.6405 13.2692 84.583 11.3797C84.0453 10.4185 82.7677 9.70268 81.7926 8.97047C80.6313 8.09859 79.4698 7.22633 78.3078 6.3546C78.2657 6.32288 78.186 6.3418 78.1326 6.37249C72.9883 9.32845 67.8332 12.2959 62.7918 15.3464C62.5681 15.1811 62.3443 15.0158 62.1206 14.8505C61.992 14.7556 61.8857 14.5662 61.6393 14.6126C61.3494 14.6673 61.0639 14.752 60.7866 14.8493C60.0346 15.1134 59.3713 15.5193 58.8898 15.9886C58.6899 16.1835 58.3188 16.2608 58.0921 16.1508C57.3926 15.8112 56.4756 15.6621 55.4886 15.6985C54.8655 15.7213 54.2181 15.8338 53.5967 16.0159C53.4581 16.0567 53.3197 16.1028 53.1848 16.1529C52.9989 16.2219 52.9104 16.2723 52.7421 16.2203C52.4255 16.1229 52.2854 15.8894 52.2254 15.661C51.983 14.7337 53.2784 13.6867 52.7783 12.7932C52.5241 12.3388 51.9201 12.0002 51.4587 11.6541C50.9094 11.2419 50.3606 10.8296 49.8112 10.417C49.7914 10.4022 49.7535 10.4112 49.7281 10.4257C44.0444 13.6917 38.3282 16.9868 33.353 20.744C31.3757 22.237 29.5326 23.8026 27.89 25.4374C27.8867 25.4411 27.8852 25.4444 27.8836 25.4477C25.9064 26.3919 24.2287 27.6499 23.1016 29.0515C23.0788 29.0801 23.1047 29.1199 23.1589 29.1012C23.5294 28.9762 23.8277 29.0711 24.0067 29.2402C24.1913 29.4143 24.1447 29.6483 24.0019 29.8783C23.6987 30.3665 22.9199 30.8152 22.3575 31.199C21.0582 32.0856 19.6862 32.9263 18.2602 33.7183C18.2326 33.7339 18.2175 33.7548 18.2315 33.7731C18.5153 34.1418 18.7103 34.5417 18.8164 34.9694C18.8628 35.154 19.157 35.2291 19.454 35.1393C19.9554 34.9877 20.4619 34.8553 20.971 34.7418C21.4917 34.626 21.7634 34.9975 21.3594 35.2757C21.1764 35.4013 20.9935 35.5273 20.81 35.6535C20.791 35.6668 20.7816 35.6886 20.794 35.7008L21.5234 36.4067C21.6817 36.5604 22.0259 36.5534 22.2889 36.3912C23.5066 35.6377 24.7251 34.8845 25.9434 34.1309C26.2906 33.9162 26.6382 33.7011 26.9859 33.4862C27.3021 33.2905 27.6117 33.0769 27.9529 32.9016C28.3177 32.7141 29.1511 32.4007 29.4016 32.6817C29.482 32.7723 29.2591 32.8992 29.158 32.982C29.0069 33.106 28.8543 33.2292 28.7011 33.3522C28.421 33.578 28.1361 33.8017 27.849 34.024C27.2756 34.4693 26.6873 34.907 26.0896 35.3391C24.965 36.1511 23.7958 36.9378 22.5911 37.6989C22.4501 37.7878 22.3545 37.9482 22.3806 38.0546C22.426 38.2423 22.4715 38.4304 22.5169 38.618C22.5358 38.6953 22.5571 38.7088 22.4287 38.742C22.3449 38.7641 22.2625 38.7915 22.1808 38.8191C22.0386 38.867 21.9037 38.9261 21.7714 38.9882C21.218 39.2487 20.7891 39.6318 20.5543 40.0289C20.0785 40.8342 20.6962 41.6015 21.7561 41.7782C21.7745 41.7811 21.7998 41.7727 21.8153 41.7623C23.2059 40.8225 24.7546 39.9988 26.4129 39.3108C27.2538 38.9618 28.1225 38.6549 29.0044 38.3858C29.1066 38.3547 29.2095 38.3243 29.3125 38.2942C29.3997 38.2688 29.3811 38.3315 29.3911 38.3686C29.4166 38.4592 29.4109 38.5566 29.3944 38.6544C29.3581 38.8676 29.214 39.0881 29.0547 39.2933C28.8178 39.598 28.5197 39.8908 28.2364 40.1846C25.6606 41.8217 23.4638 43.7208 21.8208 45.7643C21.7718 45.825 21.8265 45.9086 21.9418 45.8695C22.7247 45.6048 23.3559 45.8055 23.7349 46.163C24.1248 46.5315 24.0267 47.0263 23.7243 47.5127C23.0836 48.5452 21.4355 49.4946 20.2461 50.306C17.499 52.181 14.597 53.9587 11.581 55.6343C11.5226 55.6667 11.4906 55.7113 11.5205 55.75C12.12 56.5296 12.5335 57.3754 12.7581 58.2797C12.8555 58.6704 13.4783 58.8287 14.1062 58.6391C15.1666 58.3186 16.2371 58.0382 17.3143 57.7987C18.4156 57.5536 18.9911 58.3392 18.1361 58.9271C17.7486 59.1939 17.3616 59.4602 16.974 59.7266C16.9337 59.7542 16.9132 59.8006 16.9404 59.8269L18.4819 61.3201C18.8174 61.6451 19.5457 61.6297 20.1013 61.2863C22.6773 59.693 25.254 58.1 27.83 56.5067C28.5651 56.0521 29.3002 55.5975 30.0348 55.1431C30.7039 54.7292 31.3586 54.2773 32.0803 53.907C32.8523 53.5105 34.6144 52.8475 35.1434 53.4416C35.3144 53.6333 34.8425 53.9015 34.6288 54.0767C34.3096 54.3387 33.9871 54.5996 33.6631 54.8597C33.0702 55.3371 32.4682 55.8101 31.8612 56.2807C30.648 57.2221 29.4044 58.1479 28.1393 59.0619C25.7613 60.779 23.2884 62.4426 20.7411 64.0519C20.442 64.241 20.2409 64.5791 20.2958 64.8047C20.3912 65.2018 20.4879 65.5989 20.584 65.9962C20.6235 66.1597 20.669 66.188 20.3974 66.2588C20.2199 66.3047 20.0458 66.3636 19.8728 66.4218C19.5727 66.5227 19.2865 66.6482 19.0068 66.7796C17.8371 67.3298 16.9295 68.1406 16.4335 68.9799C15.427 70.6833 16.7328 72.3061 18.9751 72.679C19.0141 72.6858 19.0672 72.6675 19.0992 72.6458C22.0409 70.6588 25.3168 68.9165 28.8233 67.4613C30.6018 66.723 32.4385 66.0744 34.3038 65.505C34.5205 65.4391 34.7377 65.3752 34.9551 65.3116C35.1402 65.2575 35.1001 65.3903 35.1223 65.4687C35.1756 65.6608 35.1636 65.8667 35.1287 66.0734C35.0524 66.5243 34.7475 66.9901 34.4103 67.4241C33.1313 69.0699 31.0016 70.5518 30.7372 72.3327C30.4509 74.2593 32.689 75.4868 34.7923 76.25C35.7233 76.5878 36.7317 76.8524 37.764 77.0807C37.9561 77.1234 38.2268 77.2134 38.4926 77.2716C38.7597 77.3298 39.0823 77.2991 39.3791 77.1925C39.95 76.9884 40.5208 76.7838 41.0917 76.5796C41.7766 76.3342 42.4623 76.0891 43.1473 75.8437C43.5171 75.7114 44.4348 76.5827 44.6424 76.7289C44.7472 76.8032 45.2081 77.0065 45.0399 77.1621C44.7896 77.3943 44.5392 77.626 44.2888 77.8577C43.944 78.177 43.5993 78.4962 43.255 78.8149C42.9533 79.0944 42.9154 79.4952 43.1938 79.6913C44.6023 80.6837 47.1393 80.7283 49.4675 80.2121C53.078 79.4113 56.162 77.2404 58.9873 75.4817C62.0819 73.5553 65.176 71.6291 68.2707 69.7027C68.7377 69.4776 69.2145 69.2618 69.7017 69.0596C70.5428 68.711 71.4115 68.4041 72.2934 68.135C72.3954 68.1035 72.4984 68.0735 72.6015 68.0434C72.6885 68.0176 72.6699 68.0803 72.68 68.1178C72.7055 68.2084 72.6998 68.3057 72.6833 68.4035C72.6471 68.6168 72.5029 68.8372 72.3436 69.0421C71.7386 69.8206 70.7318 70.5211 70.6065 71.3631C70.4716 72.274 71.5298 72.8545 72.5244 73.2154C72.9645 73.3751 73.4412 73.5004 73.9291 73.6084C74.0199 73.6283 74.1479 73.671 74.2743 73.6986C74.4002 73.7263 74.5525 73.7117 74.6934 73.6612C74.9629 73.5644 75.233 73.4679 75.5026 73.3715C75.8268 73.2555 76.1508 73.1392 76.475 73.0233C76.6499 72.9608 77.0838 73.3728 77.1817 73.442C77.2314 73.477 77.4493 73.573 77.3696 73.6468C77.2513 73.7563 77.133 73.8662 77.0147 73.9757C76.8519 74.1267 76.6884 74.2774 76.5256 74.4283C76.3827 74.5603 76.3651 74.7497 76.4968 74.8426C77.1628 75.312 78.3622 75.333 79.4632 75.0887C81.1703 74.7103 82.6286 73.6839 83.9646 72.8521C87.1283 70.8827 90.2925 68.9131 93.4562 66.9437L98.8624 63.578C99.7658 63.0157 100.671 62.4541 101.573 61.8905C102.034 61.6023 102.488 61.3026 102.851 60.9678C103.103 60.7357 102.953 60.4661 102.574 60.4682C102.565 60.4682 102.556 60.4682 102.547 60.468C102.134 60.4682 102.007 60.1537 102.328 59.922C104.235 58.5428 106.142 57.1636 108.049 55.7848C108.221 55.6605 108.276 55.495 108.186 55.3754C107.717 54.7529 107.248 54.13 106.779 53.5075C106.766 53.4897 106.73 53.4898 106.701 53.5019C106.185 53.7125 105.656 53.8871 105.106 54.0296C105.06 54.0414 104.914 54.0739 104.868 54.0842C104.703 54.1223 104.263 54.2616 104.245 54.1197C104.211 53.8419 104.05 53.5949 103.807 53.3967C103.619 53.243 103.254 53.2767 103.005 53.47C102.495 53.866 101.864 54.1865 101.166 54.4039C100.943 54.4729 100.93 54.2516 100.88 54.1542C100.814 54.0257 100.674 53.8908 100.817 53.7354C101.065 53.4645 101.332 53.1996 101.61 52.9384C102.682 51.9328 103.965 51.0767 105.345 50.2451C106.291 49.6746 107.574 48.8378 107.396 48.0298C107.277 47.4887 106.294 46.9602 105.344 47.3835C105.278 47.413 105.218 47.4488 105.162 47.4868C105.15 46.9117 105.582 46.2898 106.294 45.8304C106.524 45.6823 106.582 45.465 106.415 45.3421C106.08 45.0946 105.745 44.8473 105.41 44.5997C105.281 44.5048 105.175 44.3149 104.928 44.3618C104.639 44.4164 104.353 44.5012 104.076 44.5985C103.324 44.8625 102.66 45.2685 102.179 45.7378C101.979 45.9327 101.608 46.0098 101.381 45.9C101.288 45.8545 101.189 45.8129 101.089 45.7744C104.033 43.645 106.978 41.5155 109.923 39.386C110.286 39.1227 110.404 38.7734 110.213 38.52C109.221 37.2034 108.229 35.8868 107.237 34.5698C107.21 34.5326 107.134 34.5324 107.072 34.5579C105.981 35.0031 104.861 35.3724 103.699 35.674C103.602 35.6988 103.294 35.7675 103.196 35.79C102.847 35.87 101.916 36.1646 101.879 35.8645C101.805 35.2768 101.467 34.7545 100.953 34.3356C100.554 34.0101 99.7823 34.0822 99.2557 34.4907C98.1765 35.3283 96.8421 36.0065 95.366 36.4655C94.8956 36.612 94.8676 36.1433 94.7611 35.9371C94.6212 35.6655 94.3264 35.3808 94.6277 35.0519C95.1523 34.4793 95.7174 33.9187 96.3056 33.3668Z" fill="#FFE466"/>
<path d="M18.1644 28.4932C18.1644 28.4932 21.6759 26.4326 26.5269 22.3549C31.3778 18.2772 33.0683 16.5728 38.0889 13.5586C43.109 10.545 46.4391 9.23533 44.4628 11.0164C42.4859 12.7977 35.4889 17.5929 27.8413 23.3971C20.1942 29.2007 12.4949 34.8099 18.1644 28.4932Z" fill="#FFE466"/>
<path d="M92.4908 69.5502C92.4908 69.5502 96.0025 67.4899 100.853 63.4123C105.704 59.3346 107.395 57.6301 112.415 54.616C117.435 51.602 120.766 50.2923 118.789 52.0734C116.812 53.855 109.815 58.6503 102.168 64.4541C94.5207 70.2581 86.8215 75.8673 92.4908 69.5502Z" fill="#FFE466"/>
<path d="M15.0878 34.7769C15.4408 36.0941 14.6604 37.4478 13.3446 37.8004C12.0289 38.1529 10.6762 37.3709 10.3232 36.0536C9.97019 34.7364 10.7506 33.3827 12.0664 33.0301C13.3821 32.6776 14.7348 33.4596 15.0878 34.7769Z" fill="#FFE466"/>
<path d="M10.085 25.6363C10.2615 26.2949 9.8713 26.9717 9.21344 27.148C8.55558 27.3243 7.8792 26.9333 7.70271 26.2747C7.52621 25.616 7.91644 24.9392 8.5743 24.7629C9.23216 24.5866 9.90854 24.9776 10.085 25.6363Z" fill="#FFE466"/>
<path d="M7.22044 33.0504C7.39693 33.7091 7.00671 34.3859 6.34884 34.5622C5.69098 34.7385 5.0146 34.3475 4.83811 33.6888C4.66162 33.0302 5.05184 32.3534 5.70971 32.1771C6.36757 32.0008 7.04395 32.3918 7.22044 33.0504Z" fill="#FFE466"/>
<path d="M18.6991 37.7715C18.8227 38.2326 18.5495 38.7064 18.089 38.8298C17.6285 38.9532 17.1551 38.6795 17.0315 38.2184C16.908 37.7574 17.1811 37.2836 17.6416 37.1602C18.1021 37.0368 18.5756 37.3105 18.6991 37.7715Z" fill="#FFE466"/>
<path d="M13.3707 44.5678C13.4943 45.0288 13.2211 45.5026 12.7606 45.626C12.3001 45.7494 11.8266 45.4757 11.7031 45.0146C11.5795 44.5536 11.8527 44.0798 12.3132 43.9564C12.7737 43.833 13.2472 44.1067 13.3707 44.5678Z" fill="#FFE466"/>
<path d="M1.69733 47.6959C1.82088 48.1569 1.54772 48.6307 1.08721 48.7541C0.62671 48.8775 0.153245 48.6038 0.0297002 48.1427C-0.0938448 47.6817 0.179314 47.2079 0.639817 47.0845C1.10032 46.9611 1.57379 47.2348 1.69733 47.6959Z" fill="#FFE466"/>
<path d="M11.0871 47.4804C11.3872 48.6001 10.7238 49.7507 9.6054 50.0504C8.48704 50.3501 7.33719 49.6854 7.03715 48.5657C6.73712 47.446 7.4005 46.2954 8.51887 45.9957C9.63723 45.696 10.7871 46.3608 11.0871 47.4804Z" fill="#FFE466"/>
<path d="M61.5173 5.07962C61.8173 6.19929 61.1539 7.3499 60.0356 7.64959C58.9172 7.94928 57.7674 7.28455 57.4673 6.16488C57.1673 5.04521 57.8307 3.8946 58.949 3.59491C60.0674 3.29522 61.2172 3.95995 61.5173 5.07962Z" fill="#FFE466"/>
<path d="M70.1743 77.406C70.4743 78.5257 69.8109 79.6763 68.6926 79.976C67.5742 80.2757 66.4244 79.6109 66.1243 78.4913C65.8243 77.3716 66.4877 76.221 67.606 75.9213C68.7244 75.6216 69.8742 76.2863 70.1743 77.406Z" fill="#FFE466"/>
<path d="M117.202 65.1874C117.802 67.4267 116.475 69.7279 114.239 70.3273C112.002 70.9267 109.702 69.5972 109.102 67.3579C108.502 65.1186 109.829 62.8173 112.066 62.2179C114.302 61.6186 116.602 62.948 117.202 65.1874Z" fill="#FFE466"/>
<path d="M116.438 43.2794C116.703 44.2674 116.118 45.2826 115.131 45.5471C114.144 45.8115 113.129 45.225 112.865 44.237C112.6 43.2491 113.185 42.2338 114.172 41.9694C115.159 41.705 116.173 42.2915 116.438 43.2794Z" fill="#FFE466"/>
<path d="M123.382 53.945C123.541 54.5378 123.189 55.1469 122.597 55.3056C122.005 55.4642 121.396 55.1123 121.238 54.5196C121.079 53.9268 121.43 53.3177 122.022 53.159C122.614 53.0003 123.223 53.3523 123.382 53.945Z" fill="#FFE466"/>
<path d="M119.936 44.8984C120.024 45.2278 119.829 45.5662 119.5 45.6543C119.171 45.7425 118.833 45.547 118.745 45.2176C118.657 44.8883 118.852 44.5499 119.181 44.4618C119.51 44.3736 119.848 44.5691 119.936 44.8984Z" fill="#FFE466"/>
<path d="M66.4534 1.58395C66.5946 2.11086 66.2824 2.65232 65.7561 2.79335C65.2298 2.93438 64.6887 2.62157 64.5475 2.09467C64.4063 1.56776 64.7185 1.0263 65.2448 0.885269C65.7711 0.744239 66.3122 1.05705 66.4534 1.58395Z" fill="#FFE466"/>
<path d="M114.692 12.9429C115.01 14.1284 114.308 15.3467 113.124 15.664C111.939 15.9814 110.722 15.2775 110.404 14.092C110.087 12.9065 110.789 11.6882 111.973 11.3709C113.157 11.0535 114.375 11.7574 114.692 12.9429Z" fill="#FFE466"/>
<path d="M53.2838 2.94008C53.4426 3.53284 53.0914 4.14199 52.4994 4.30065C51.9073 4.45931 51.2986 4.1074 51.1397 3.51463C50.9809 2.92186 51.3321 2.31271 51.9241 2.15405C52.5162 1.9954 53.125 2.34731 53.2838 2.94008Z" fill="#FFE466"/>
<path d="M91.4241 8.0579C91.583 8.65066 91.2318 9.25982 90.6397 9.41847C90.0476 9.57713 89.4389 9.22522 89.28 8.63245C89.1212 8.03969 89.4724 7.43054 90.0645 7.27188C90.6565 7.11322 91.2653 7.46513 91.4241 8.0579Z" fill="#FFE466"/>
<path d="M110.221 29.6072C110.38 30.2 110.029 30.8091 109.437 30.9678C108.845 31.1264 108.236 30.7745 108.077 30.1818C107.918 29.589 108.269 28.9798 108.861 28.8212C109.453 28.6625 110.062 29.0144 110.221 29.6072Z" fill="#FFE466"/>
<path d="M45.5551 72.2439C45.714 72.8366 45.3628 73.4458 44.7707 73.6044C44.1786 73.7631 43.5699 73.4112 43.411 72.8184C43.2522 72.2256 43.6034 71.6165 44.1955 71.4578C44.7875 71.2992 45.3963 71.6511 45.5551 72.2439Z" fill="#FFE466"/>
<path d="M104.619 55.3939C104.708 55.7232 104.513 56.0616 104.184 56.1498C103.855 56.2379 103.516 56.0424 103.428 55.7131C103.34 55.3838 103.535 55.0453 103.864 54.9572C104.193 54.8691 104.531 55.0646 104.619 55.3939Z" fill="#FFE466"/>
<path d="M99.5991 55.7166C99.652 55.9142 99.5349 56.1172 99.3376 56.1701C99.1402 56.223 98.9373 56.1057 98.8844 55.9081C98.8314 55.7105 98.9485 55.5075 99.1458 55.4546C99.3432 55.4017 99.5461 55.519 99.5991 55.7166Z" fill="#FFE466"/>
<g clip-path="url(#clip0_191_31)">
<path d="M77.3111 26.0591H75.9213V24.6693C75.9213 23.9507 75.3368 23.3662 74.6182 23.3662H66.333C66.1105 22.9652 65.6831 22.693 65.193 22.693H55.6638C55.3685 21.161 54.0184 20 52.4016 20C50.7848 20 49.4346 21.161 49.1394 22.6929H47.6889C46.9704 22.6929 46.3858 23.2774 46.3858 23.996V41.5C46.3858 41.9901 46.6581 42.4175 47.0591 42.64V59.004C47.0591 59.7226 47.6436 60.3071 48.3622 60.3071H49.7519V61.6969C49.7519 62.4155 50.3365 63.0001 51.055 63.0001H77.311C78.0296 63.0001 78.6141 62.4155 78.6141 61.6969V27.3622C78.6142 26.6436 78.0296 26.0591 77.3111 26.0591ZM47.6456 23.9961C47.6456 23.9721 47.665 23.9527 47.6889 23.9527H49.0787V30.0552C49.0787 31.8874 50.5693 33.378 52.4016 33.378C54.2338 33.378 55.7243 31.8873 55.7243 30.0551V27.3622C55.7243 26.2724 54.8377 25.3858 53.748 25.3858C52.6583 25.3858 51.7717 26.2725 51.7717 27.3622V28.7086C51.7717 29.0565 52.0537 29.3385 52.4016 29.3385C52.7494 29.3385 53.0314 29.0565 53.0314 28.7086V27.3622C53.0314 26.967 53.3529 26.6456 53.748 26.6456C54.1431 26.6456 54.4645 26.9671 54.4645 27.3622V30.055C54.4645 31.1926 53.539 32.1181 52.4015 32.1181C51.2639 32.1181 50.3385 31.1926 50.3385 30.0551V23.3253C50.3385 23.3244 50.3386 23.3237 50.3386 23.3228C50.3386 23.3223 50.3385 23.3218 50.3385 23.3212C50.3394 22.1843 51.2645 21.2598 52.4016 21.2598C53.3195 21.2598 54.099 21.8625 54.3659 22.6929H52.4012C52.0534 22.6929 51.7713 22.9749 51.7713 23.3228C51.7713 23.6706 52.0534 23.9526 52.4012 23.9526H65.1929C65.2168 23.9526 65.2362 23.972 65.2362 23.996V41.5C65.2362 41.5239 65.2168 41.5433 65.1929 41.5433H47.6889C47.665 41.5433 47.6456 41.5239 47.6456 41.5V23.9961ZM77.3544 61.6968C77.3544 61.7207 77.335 61.7402 77.3111 61.7402H51.0551C51.0312 61.7402 51.0118 61.7208 51.0118 61.6968V60.307H68.6747C69.2026 60.307 69.699 60.1014 70.0722 59.7281L75.3425 54.458C75.7158 54.0847 75.9214 53.5885 75.9214 53.0605V30.7284C75.9214 30.3806 75.6394 30.0985 75.2915 30.0985C74.9436 30.0985 74.6616 30.3806 74.6616 30.7284V52.9883H69.9057C69.1871 52.9883 68.6026 53.5728 68.6026 54.2914V59.0474H48.3623C48.3384 59.0474 48.319 59.028 48.319 59.004V42.8031H65.193C65.9116 42.8031 66.4961 42.2186 66.4961 41.5V24.6259H74.6183C74.6422 24.6259 74.6616 24.6453 74.6616 24.6693V28.0355C74.6616 28.3833 74.9436 28.6653 75.2915 28.6653C75.6394 28.6653 75.9214 28.3833 75.9214 28.0355V27.3188H77.3111C77.3351 27.3188 77.3545 27.3382 77.3545 27.3622V61.6968H77.3544ZM69.8622 58.1566V54.2914C69.8622 54.2675 69.8816 54.2481 69.9055 54.2481H73.7709L69.8622 58.1566Z" fill="black"/>
<path d="M58.4606 30.0117H61.8268C62.1746 30.0117 62.4567 29.7297 62.4567 29.3818C62.4567 29.034 62.1746 28.752 61.8268 28.752H58.4606C58.1127 28.752 57.8307 29.034 57.8307 29.3818C57.8307 29.7297 58.1127 30.0117 58.4606 30.0117Z" fill="black"/>
<path d="M58.4606 33.3779H61.8268C62.1746 33.3779 62.4567 33.0959 62.4567 32.748C62.4567 32.4002 62.1746 32.1182 61.8268 32.1182H58.4606C58.1127 32.1182 57.8307 32.4002 57.8307 32.748C57.8307 33.0959 58.1127 33.3779 58.4606 33.3779Z" fill="black"/>
<path d="M51.0551 36.744H61.8268C62.1746 36.744 62.4567 36.462 62.4567 36.1141C62.4567 35.7663 62.1746 35.4843 61.8268 35.4843H51.0551C50.7073 35.4843 50.4252 35.7663 50.4252 36.1141C50.4252 36.462 50.7072 36.744 51.0551 36.744Z" fill="black"/>
<path d="M71.2519 35.4843H69.9055C69.5576 35.4843 69.2756 35.7663 69.2756 36.1141C69.2756 36.462 69.5576 36.744 69.9055 36.744H71.2519C71.5998 36.744 71.8818 36.462 71.8818 36.1141C71.8818 35.7663 71.5999 35.4843 71.2519 35.4843Z" fill="black"/>
<path d="M71.2519 28.752H69.9055C69.5576 28.752 69.2756 29.034 69.2756 29.3818C69.2756 29.7297 69.5576 30.0117 69.9055 30.0117H71.2519C71.5998 30.0117 71.8818 29.7297 71.8818 29.3818C71.8818 29.034 71.5999 28.752 71.2519 28.752Z" fill="black"/>
<path d="M71.2519 32.1182H69.9055C69.5576 32.1182 69.2756 32.4002 69.2756 32.748C69.2756 33.0959 69.5576 33.3779 69.9055 33.3779H71.2519C71.5998 33.3779 71.8818 33.0959 71.8818 32.748C71.8818 32.4002 71.5999 32.1182 71.2519 32.1182Z" fill="black"/>
<path d="M71.2519 38.8505H69.9055C69.5576 38.8505 69.2756 39.1325 69.2756 39.4803C69.2756 39.8282 69.5576 40.1102 69.9055 40.1102H71.2519C71.5998 40.1102 71.8818 39.8282 71.8818 39.4803C71.8818 39.1325 71.5999 38.8505 71.2519 38.8505Z" fill="black"/>
<path d="M53.0748 44.9095H51.7282C51.3804 44.9095 51.0984 45.1915 51.0984 45.5394C51.0984 45.8872 51.3804 46.1693 51.7282 46.1693H53.0748C53.4226 46.1693 53.7046 45.8872 53.7046 45.5394C53.7046 45.1915 53.4227 44.9095 53.0748 44.9095Z" fill="black"/>
<path d="M53.0748 51.6418H51.7282C51.3804 51.6418 51.0984 51.9238 51.0984 52.2717C51.0984 52.6195 51.3804 52.9016 51.7282 52.9016H53.0748C53.4226 52.9016 53.7046 52.6195 53.7046 52.2717C53.7046 51.9238 53.4227 51.6418 53.0748 51.6418Z" fill="black"/>
<path d="M53.0748 48.2756H51.7282C51.3804 48.2756 51.0984 48.5577 51.0984 48.9055C51.0984 49.2534 51.3804 49.5354 51.7282 49.5354H53.0748C53.4226 49.5354 53.7046 49.2534 53.7046 48.9055C53.7046 48.5577 53.4227 48.2756 53.0748 48.2756Z" fill="black"/>
<path d="M71.2519 44.9095H56.4409C56.0931 44.9095 55.8111 45.1915 55.8111 45.5394C55.8111 45.8872 56.0931 46.1693 56.4409 46.1693H71.2519C71.5998 46.1693 71.8818 45.8872 71.8818 45.5394C71.8818 45.1915 71.5999 44.9095 71.2519 44.9095Z" fill="black"/>
<path d="M65.8662 51.6418H56.4409C56.0931 51.6418 55.8111 51.9238 55.8111 52.2717C55.8111 52.6195 56.0931 52.9016 56.4409 52.9016H65.8662C66.214 52.9016 66.4961 52.6195 66.4961 52.2717C66.4961 51.9238 66.214 51.6418 65.8662 51.6418Z" fill="black"/>
<path d="M71.2519 48.2756H56.4409C56.0931 48.2756 55.8111 48.5577 55.8111 48.9055C55.8111 49.2534 56.0931 49.5354 56.4409 49.5354H71.2519C71.5998 49.5354 71.8818 49.2534 71.8818 48.9055C71.8818 48.5577 71.5999 48.2756 71.2519 48.2756Z" fill="black"/>
</g>
<defs>
<clipPath id="clip0_191_31">
<rect width="43" height="43" fill="white" transform="translate(41 20)"/>
</clipPath>
</defs>
</svg>
