<svg width="124" height="80" viewBox="0 0 124 80" fill="none" xmlns="http://www.w3.org/2000/svg">
<path d="M96.3056 32.5153C98.5725 30.3881 101.286 28.5778 104.204 26.8193C106.205 25.6125 108.918 23.8427 108.543 22.1337C108.292 20.9893 106.211 19.8724 104.203 20.7673C104.064 20.829 103.937 20.9048 103.818 20.9851C103.793 19.7694 104.706 18.4543 106.212 17.4822C106.698 17.1689 106.82 16.709 106.468 16.4492C105.759 15.9262 105.05 15.4028 104.341 14.8795C104.069 14.6789 103.845 14.2772 103.324 14.3761C102.711 14.4918 102.106 14.6708 101.52 14.8766C99.9305 15.4348 98.5268 16.2938 97.5085 17.2862C97.086 17.6979 96.3011 17.862 95.8219 17.6292C94.3415 16.9108 92.4034 16.5955 90.3157 16.6721C88.9981 16.7205 87.6282 16.9586 86.3142 17.3439C86.0212 17.4302 85.7281 17.528 85.4434 17.6338C85.0492 17.78 84.8629 17.8864 84.5062 17.7764C83.8375 17.5698 83.5411 17.0764 83.4141 16.5936C82.9007 14.632 85.6405 12.4178 84.583 10.5283C84.0453 9.56707 82.7677 8.85124 81.7926 8.11903C80.6313 7.24715 79.4698 6.37489 78.3078 5.50316C78.2657 5.47144 78.186 5.49036 78.1326 5.52105C72.9883 8.47701 67.8332 11.4445 62.7918 14.4949C62.5681 14.3296 62.3443 14.1644 62.1206 13.9991C61.992 13.9041 61.8857 13.7148 61.6393 13.7611C61.3494 13.8159 61.0639 13.9006 60.7866 13.9978C60.0346 14.262 59.3713 14.6678 58.8898 15.1372C58.6899 15.332 58.3188 15.4094 58.0921 15.2993C57.3926 14.9597 56.4756 14.8107 55.4886 14.8471C54.8655 14.8699 54.2181 14.9824 53.5967 15.1644C53.4581 15.2053 53.3197 15.2514 53.1848 15.3014C52.9989 15.3705 52.9104 15.4208 52.7421 15.3689C52.4255 15.2715 52.2854 15.0379 52.2254 14.8095C51.983 13.8822 53.2784 12.8352 52.7783 11.9417C52.5241 11.4873 51.9201 11.1488 51.4587 10.8027C50.9094 10.3905 50.3606 9.97813 49.8112 9.56554C49.7914 9.55079 49.7535 9.55971 49.7281 9.5743C44.0444 12.8403 38.3282 16.1354 33.353 19.8926C31.3757 21.3856 29.5326 22.9512 27.89 24.5859C27.8867 24.5897 27.8852 24.593 27.8836 24.5962C25.9064 25.5405 24.2287 26.7985 23.1016 28.2C23.0788 28.2287 23.1047 28.2684 23.1589 28.2498C23.5294 28.1247 23.8277 28.2197 24.0067 28.3887C24.1913 28.5629 24.1447 28.7969 24.0019 29.0268C23.6987 29.5151 22.9199 29.9638 22.3575 30.3475C21.0582 31.2342 19.6862 32.0749 18.2602 32.8669C18.2326 32.8825 18.2175 32.9033 18.2315 32.9217C18.5153 33.2904 18.7103 33.6902 18.8164 34.118C18.8628 34.3025 19.157 34.3777 19.454 34.2879C19.9554 34.1363 20.4619 34.0038 20.971 33.8903C21.4917 33.7746 21.7634 34.1461 21.3594 34.4243C21.1764 34.5499 20.9935 34.6759 20.81 34.8021C20.791 34.8153 20.7816 34.8371 20.794 34.8494L21.5234 35.5553C21.6817 35.709 22.0259 35.7019 22.2889 35.5397C23.5066 34.7863 24.7251 34.0331 25.9434 33.2794C26.2906 33.0648 26.6382 32.8496 26.9859 32.6348C27.3021 32.4391 27.6117 32.2255 27.9529 32.0501C28.3177 31.8627 29.1511 31.5493 29.4016 31.8302C29.482 31.9209 29.2591 32.0478 29.158 32.1306C29.0069 32.2546 28.8543 32.3778 28.7011 32.5008C28.421 32.7265 28.1361 32.9503 27.849 33.1726C27.2756 33.6178 26.6873 34.0556 26.0896 34.4877C24.965 35.2997 23.7958 36.0864 22.5911 36.8474C22.4501 36.9364 22.3545 37.0967 22.3806 37.2032C22.426 37.3909 22.4715 37.5789 22.5169 37.7666C22.5358 37.8438 22.5571 37.8574 22.4287 37.8906C22.3449 37.9126 22.2625 37.94 22.1808 37.9676C22.0386 38.0156 21.9037 38.0747 21.7714 38.1367C21.218 38.3972 20.7891 38.7804 20.5543 39.1775C20.0785 39.9827 20.6962 40.7501 21.7561 40.9268C21.7745 40.9296 21.7998 40.9212 21.8153 40.9109C23.2059 39.9711 24.7546 39.1474 26.4129 38.4593C27.2538 38.1103 28.1225 37.8034 29.0044 37.5343C29.1066 37.5033 29.2095 37.4728 29.3125 37.4428C29.3997 37.4174 29.3811 37.4801 29.3911 37.5171C29.4166 37.6078 29.4109 37.7051 29.3944 37.8029C29.3581 38.0162 29.214 38.2366 29.0547 38.4419C28.8178 38.7466 28.5197 39.0394 28.2364 39.3332C25.6606 40.9702 23.4638 42.8693 21.8208 44.9129C21.7718 44.9735 21.8265 45.0571 21.9418 45.0181C22.7247 44.7534 23.3559 44.954 23.7349 45.3115C24.1248 45.68 24.0267 46.1748 23.7243 46.6613C23.0836 47.6938 21.4355 48.6432 20.2461 49.4546C17.499 51.3296 14.597 53.1073 11.581 54.7828C11.5226 54.8153 11.4906 54.8599 11.5205 54.8986C12.12 55.6782 12.5335 56.524 12.7581 57.4282C12.8555 57.819 13.4783 57.9773 14.1062 57.7877C15.1666 57.4671 16.2371 57.1868 17.3143 56.9473C18.4156 56.7021 18.9911 57.4878 18.1361 58.0756C17.7486 58.3424 17.3616 58.6087 16.974 58.8752C16.9337 58.9027 16.9132 58.9492 16.9404 58.9755L18.4819 60.4687C18.8174 60.7936 19.5457 60.7783 20.1013 60.4349C22.6773 58.8416 25.254 57.2485 27.83 55.6553C28.5651 55.2007 29.3002 54.7461 30.0348 54.2917C30.7039 53.8777 31.3586 53.4259 32.0803 53.0556C32.8523 52.6591 34.6144 51.9961 35.1434 52.5902C35.3144 52.7819 34.8425 53.0501 34.6288 53.2253C34.3096 53.4873 33.9871 53.7482 33.6631 54.0082C33.0702 54.4857 32.4682 54.9587 31.8612 55.4293C30.648 56.3707 29.4044 57.2965 28.1393 58.2105C25.7613 59.9276 23.2884 61.5911 20.7411 63.2005C20.442 63.3895 20.2409 63.7277 20.2958 63.9533C20.3912 64.3504 20.4879 64.7475 20.584 65.1448C20.6235 65.3082 20.669 65.3366 20.3974 65.4073C20.2199 65.4532 20.0458 65.5122 19.8728 65.5704C19.5727 65.6713 19.2865 65.7967 19.0068 65.9282C17.8371 66.4783 16.9295 67.2892 16.4335 68.1285C15.427 69.8319 16.7328 71.4546 18.9751 71.8276C19.0141 71.8343 19.0672 71.816 19.0992 71.7943C22.0409 69.8074 25.3168 68.0651 28.8233 66.6098C30.6018 65.8716 32.4385 65.223 34.3038 64.6535C34.5205 64.5877 34.7377 64.5237 34.9551 64.4601C35.1402 64.406 35.1001 64.5388 35.1223 64.6172C35.1756 64.8093 35.1636 65.0153 35.1287 65.222C35.0524 65.6729 34.7475 66.1387 34.4103 66.5726C33.1313 68.2184 31.0016 69.7003 30.7372 71.4813C30.4509 73.4078 32.689 74.6353 34.7923 75.3985C35.7233 75.7363 36.7317 76.0009 37.764 76.2292C37.9561 76.2719 38.2268 76.362 38.4926 76.4202C38.7597 76.4784 39.0823 76.4476 39.3791 76.3411C39.95 76.1369 40.5208 75.9324 41.0917 75.7282C41.7766 75.4828 42.4623 75.2376 43.1473 74.9922C43.5171 74.86 44.4348 75.7312 44.6424 75.8775C44.7472 75.9518 45.2081 76.1551 45.0399 76.3107C44.7896 76.5428 44.5392 76.7746 44.2888 77.0063C43.944 77.3255 43.5993 77.6448 43.255 77.9635C42.9533 78.243 42.9154 78.6438 43.1938 78.8399C44.6023 79.8323 47.1393 79.8769 49.4675 79.3607C53.078 78.5599 56.162 76.389 58.9873 74.6302C62.0819 72.7039 65.176 70.7776 68.2707 68.8513C68.7377 68.6262 69.2145 68.4104 69.7017 68.2082C70.5428 67.8595 71.4115 67.5526 72.2934 67.2835C72.3954 67.2521 72.4984 67.222 72.6015 67.192C72.6885 67.1662 72.6699 67.2289 72.68 67.2663C72.7055 67.357 72.6998 67.4543 72.6833 67.5521C72.6471 67.7653 72.5029 67.9858 72.3436 68.1907C71.7386 68.9691 70.7318 69.6697 70.6065 70.5117C70.4716 71.4226 71.5298 72.0031 72.5244 72.3639C72.9645 72.5236 73.4412 72.649 73.9291 72.757C74.0199 72.7769 74.1479 72.8196 74.2743 72.8471C74.4002 72.8748 74.5525 72.8602 74.6934 72.8098C74.9629 72.713 75.233 72.6164 75.5026 72.52C75.8268 72.4041 76.1508 72.2878 76.475 72.1718C76.6499 72.1094 77.0838 72.5214 77.1817 72.5906C77.2314 72.6256 77.4493 72.7216 77.3696 72.7953C77.2513 72.9049 77.133 73.0148 77.0147 73.1243C76.8519 73.2752 76.6884 73.4259 76.5256 73.5768C76.3827 73.7089 76.3651 73.8983 76.4968 73.9912C77.1628 74.4606 78.3622 74.4815 79.4632 74.2373C81.1703 73.8589 82.6286 72.8325 83.9646 72.0007C87.1283 70.0313 90.2925 68.0617 93.4562 66.0922L98.8624 62.7266C99.7658 62.1643 100.671 61.6026 101.573 61.0391C102.034 60.7509 102.488 60.4512 102.851 60.1163C103.103 59.8843 102.953 59.6147 102.574 59.6167C102.565 59.6167 102.556 59.6167 102.547 59.6166C102.134 59.6167 102.007 59.3023 102.328 59.0706C104.235 57.6914 106.142 56.3121 108.049 54.9333C108.221 54.8091 108.276 54.6436 108.186 54.524C107.717 53.9015 107.248 53.2785 106.779 52.656C106.766 52.6383 106.73 52.6384 106.701 52.6504C106.185 52.861 105.656 53.0356 105.106 53.1782C105.06 53.19 104.914 53.2225 104.868 53.2328C104.703 53.2709 104.263 53.4102 104.245 53.2682C104.211 52.9905 104.05 52.7435 103.807 52.5452C103.619 52.3915 103.254 52.4253 103.005 52.6186C102.495 53.0146 101.864 53.3351 101.166 53.5524C100.943 53.6215 100.93 53.4002 100.88 53.3027C100.814 53.1742 100.674 53.0393 100.817 52.884C101.065 52.613 101.332 52.3482 101.61 52.0869C102.682 51.0814 103.965 50.2252 105.345 49.3937C106.291 48.8231 107.574 47.9863 107.396 47.1784C107.277 46.6373 106.294 46.1088 105.344 46.532C105.278 46.5616 105.218 46.5973 105.162 46.6354C105.15 46.0603 105.582 45.4384 106.294 44.979C106.524 44.8309 106.582 44.6135 106.415 44.4907C106.08 44.2431 105.745 43.9958 105.41 43.7483C105.281 43.6533 105.175 43.4634 104.928 43.5103C104.639 43.5649 104.353 43.6498 104.076 43.747C103.324 44.011 102.66 44.417 102.179 44.8864C101.979 45.0812 101.608 45.1584 101.381 45.0485C101.288 45.0031 101.189 44.9615 101.089 44.9229C104.033 42.7936 106.978 40.664 109.923 38.5345C110.286 38.2713 110.404 37.922 110.213 37.6686C109.221 36.352 108.229 35.0354 107.237 33.7184C107.21 33.6812 107.134 33.681 107.072 33.7065C105.981 34.1516 104.861 34.5209 103.699 34.8226C103.602 34.8474 103.294 34.9161 103.196 34.9386C102.847 35.0186 101.916 35.3132 101.879 35.0131C101.805 34.4254 101.467 33.903 100.953 33.4842C100.554 33.1587 99.7823 33.2308 99.2557 33.6393C98.1765 34.4768 96.8421 35.155 95.366 35.6141C94.8956 35.7606 94.8676 35.2918 94.7611 35.0857C94.6212 34.814 94.3264 34.5294 94.6277 34.2005C95.1523 33.6278 95.7174 33.0673 96.3056 32.5153Z" fill="#FFE466"/>
<path d="M18.1644 27.6417C18.1644 27.6417 21.6759 25.5811 26.5269 21.5035C31.3778 17.4258 33.0683 15.7213 38.0889 12.7072C43.109 9.69355 46.4391 8.38389 44.4628 10.165C42.4859 11.9462 35.4889 16.7414 27.8413 22.5456C20.1942 28.3493 12.4949 33.9585 18.1644 27.6417Z" fill="#FFE466"/>
<path d="M92.4908 68.6987C92.4908 68.6987 96.0025 66.6385 100.853 62.5608C105.704 58.4832 107.395 56.7787 112.415 53.7645C117.435 50.7505 120.766 49.4409 118.789 51.222C116.812 53.0036 109.815 57.7988 102.168 63.6026C94.5207 69.4067 86.8215 75.0158 92.4908 68.6987Z" fill="#FFE466"/>
<path d="M15.0878 33.9254C15.4408 35.2427 14.6604 36.5963 13.3446 36.9489C12.0289 37.3015 10.6762 36.5195 10.3232 35.2022C9.97019 33.8849 10.7506 32.5313 12.0664 32.1787C13.3821 31.8261 14.7348 32.6082 15.0878 33.9254Z" fill="#FFE466"/>
<path d="M10.085 24.7848C10.2615 25.4435 9.8713 26.1203 9.21344 26.2966C8.55558 26.4729 7.8792 26.0819 7.70271 25.4232C7.52621 24.7646 7.91644 24.0878 8.5743 23.9115C9.23216 23.7352 9.90854 24.1262 10.085 24.7848Z" fill="#FFE466"/>
<path d="M7.22044 32.199C7.39693 32.8576 7.00671 33.5345 6.34884 33.7107C5.69098 33.887 5.0146 33.496 4.83811 32.8374C4.66162 32.1788 5.05184 31.5019 5.70971 31.3256C6.36757 31.1494 7.04395 31.5404 7.22044 32.199Z" fill="#FFE466"/>
<path d="M18.6991 36.9201C18.8227 37.3811 18.5495 37.8549 18.089 37.9783C17.6285 38.1017 17.1551 37.828 17.0315 37.367C16.908 36.9059 17.1811 36.4322 17.6416 36.3088C18.1021 36.1854 18.5756 36.4591 18.6991 36.9201Z" fill="#FFE466"/>
<path d="M13.3707 43.7163C13.4943 44.1774 13.2211 44.6511 12.7606 44.7745C12.3001 44.8979 11.8266 44.6242 11.7031 44.1632C11.5795 43.7021 11.8527 43.2284 12.3132 43.105C12.7737 42.9816 13.2472 43.2553 13.3707 43.7163Z" fill="#FFE466"/>
<path d="M1.69733 46.8444C1.82088 47.3055 1.54772 47.7793 1.08721 47.9027C0.62671 48.0261 0.153245 47.7523 0.0297002 47.2913C-0.0938448 46.8303 0.179314 46.3565 0.639817 46.2331C1.10032 46.1097 1.57379 46.3834 1.69733 46.8444Z" fill="#FFE466"/>
<path d="M11.0871 46.629C11.3872 47.7487 10.7238 48.8993 9.6054 49.199C8.48704 49.4987 7.33719 48.8339 7.03715 47.7143C6.73712 46.5946 7.4005 45.444 8.51887 45.1443C9.63723 44.8446 10.7871 45.5093 11.0871 46.629Z" fill="#FFE466"/>
<path d="M61.5173 4.22818C61.8173 5.34785 61.1539 6.49846 60.0356 6.79815C58.9172 7.09784 57.7674 6.43311 57.4673 5.31344C57.1673 4.19377 57.8307 3.04316 58.949 2.74347C60.0674 2.44378 61.2172 3.10851 61.5173 4.22818Z" fill="#FFE466"/>
<path d="M70.1743 76.5546C70.4743 77.6742 69.8109 78.8248 68.6926 79.1245C67.5742 79.4242 66.4244 78.7595 66.1243 77.6398C65.8243 76.5201 66.4877 75.3695 67.606 75.0698C68.7244 74.7701 69.8742 75.4349 70.1743 76.5546Z" fill="#FFE466"/>
<path d="M117.202 64.3359C117.802 66.5753 116.475 68.8765 114.239 69.4759C112.002 70.0753 109.702 68.7458 109.102 66.5065C108.502 64.2671 109.829 61.9659 112.066 61.3665C114.302 60.7671 116.602 62.0966 117.202 64.3359Z" fill="#FFE466"/>
<path d="M116.438 42.428C116.703 43.4159 116.118 44.4312 115.131 44.6956C114.144 44.9601 113.129 44.3735 112.865 43.3856C112.6 42.3976 113.185 41.3824 114.172 41.118C115.159 40.8535 116.173 41.44 116.438 42.428Z" fill="#FFE466"/>
<path d="M123.382 53.0936C123.541 53.6863 123.189 54.2955 122.597 54.4542C122.005 54.6128 121.396 54.2609 121.238 53.6681C121.079 53.0754 121.43 52.4662 122.022 52.3076C122.614 52.1489 123.223 52.5008 123.382 53.0936Z" fill="#FFE466"/>
<path d="M119.936 44.047C120.024 44.3763 119.829 44.7147 119.5 44.8029C119.171 44.891 118.833 44.6955 118.745 44.3662C118.657 44.0369 118.852 43.6985 119.181 43.6103C119.51 43.5222 119.848 43.7177 119.936 44.047Z" fill="#FFE466"/>
<path d="M66.4534 0.732513C66.5946 1.25942 66.2824 1.80088 65.7561 1.94191C65.2298 2.08294 64.6887 1.77013 64.5475 1.24323C64.4063 0.716324 64.7185 0.174858 65.2448 0.0338281C65.7711 -0.107202 66.3122 0.20561 66.4534 0.732513Z" fill="#FFE466"/>
<path d="M114.692 12.0915C115.01 13.277 114.308 14.4953 113.124 14.8126C111.939 15.1299 110.722 14.4261 110.404 13.2406C110.087 12.055 110.789 10.8367 111.973 10.5194C113.157 10.2021 114.375 10.9059 114.692 12.0915Z" fill="#FFE466"/>
<path d="M53.2838 2.08864C53.4426 2.6814 53.0914 3.29055 52.4994 3.44921C51.9073 3.60787 51.2986 3.25596 51.1397 2.66319C50.9809 2.07042 51.3321 1.46127 51.9241 1.30261C52.5162 1.14396 53.125 1.49587 53.2838 2.08864Z" fill="#FFE466"/>
<path d="M91.4241 7.20646C91.583 7.79922 91.2318 8.40837 90.6397 8.56703C90.0476 8.72569 89.4389 8.37378 89.28 7.78101C89.1212 7.18825 89.4724 6.5791 90.0645 6.42044C90.6565 6.26178 91.2653 6.61369 91.4241 7.20646Z" fill="#FFE466"/>
<path d="M110.221 28.7558C110.38 29.3485 110.029 29.9577 109.437 30.1163C108.845 30.275 108.236 29.9231 108.077 29.3303C107.918 28.7375 108.269 28.1284 108.861 27.9697C109.453 27.8111 110.062 28.163 110.221 28.7558Z" fill="#FFE466"/>
<path d="M45.5551 71.3924C45.714 71.9852 45.3628 72.5943 44.7707 72.753C44.1786 72.9116 43.5699 72.5597 43.411 71.967C43.2522 71.3742 43.6034 70.765 44.1955 70.6064C44.7875 70.4477 45.3963 70.7996 45.5551 71.3924Z" fill="#FFE466"/>
<path d="M104.619 54.5424C104.708 54.8718 104.513 55.2102 104.184 55.2983C103.855 55.3865 103.516 55.1909 103.428 54.8616C103.34 54.5323 103.535 54.1939 103.864 54.1058C104.193 54.0176 104.531 54.2131 104.619 54.5424Z" fill="#FFE466"/>
<path d="M99.5991 54.8652C99.652 55.0627 99.5349 55.2658 99.3376 55.3187C99.1402 55.3716 98.9373 55.2543 98.8844 55.0567C98.8314 54.8591 98.9485 54.656 99.1458 54.6031C99.3432 54.5503 99.5461 54.6676 99.5991 54.8652Z" fill="#FFE466"/>
<path fill-rule="evenodd" clip-rule="evenodd" d="M53.4636 54.3817C53.1843 54.3817 52.9584 54.6095 52.9584 54.8889H52.9584V60.062C52.9584 60.3413 53.1841 60.5672 53.4636 60.5672C53.5554 60.5672 53.6396 60.5441 53.7142 60.5021L55.8635 59.5203L58.0509 60.5212C58.1907 60.5844 58.3438 60.5786 58.472 60.5193L60.6595 59.5203L62.8489 60.5212C62.9886 60.5844 63.1398 60.5786 63.2699 60.5193L65.4574 59.5203L67.6468 60.5212C67.7865 60.5844 67.9377 60.5786 68.0659 60.5193L70.2553 59.5203L72.4447 60.5212C72.7797 60.6723 73.1605 60.4217 73.1605 60.0619V29.7453C73.1605 28.7118 72.7414 27.776 72.0639 27.0966C71.3864 26.4191 70.4487 26 69.4152 26H50.2255C49.1901 26 48.2543 26.4191 47.5768 27.0967C46.8974 27.776 46.4782 28.7118 46.4782 29.7453V31.5176C46.4782 31.7988 46.706 32.0247 46.9855 32.0247C47.2648 32.0247 47.4907 31.7988 47.4907 31.5176V29.7453C47.4907 28.9913 47.7969 28.308 48.2925 27.8142C48.7863 27.3186 49.4695 27.0124 50.2255 27.0124C50.9795 27.0124 51.6627 27.3186 52.1565 27.8142C52.6522 28.3081 52.9584 28.9913 52.9584 29.7453V47.3504H46.308C46.3227 47.3356 46.3375 47.3213 46.3523 47.307C46.3662 47.2936 46.3802 47.2801 46.394 47.2662C47.0715 46.5887 47.4907 45.651 47.4907 44.6175V33.8121C47.4907 33.5327 47.2648 33.3049 46.9855 33.3049C46.706 33.3049 46.4782 33.5327 46.4782 33.8121V36.6752H40.5072C40.2277 36.6752 40 36.9011 40 37.1823V39.7526C40 40.032 40.2277 40.2598 40.5072 40.2598C40.7866 40.2598 41.0124 40.032 41.0124 39.7526V37.6876H46.4783V44.6175C46.4783 45.3715 46.1721 46.0548 45.6783 46.5505C45.1845 47.0443 44.5014 47.3505 43.7454 47.3505C42.9913 47.3505 42.3082 47.0442 41.8144 46.5505C41.3188 46.0548 41.0125 45.3715 41.0125 44.6175V42.0473C41.0125 41.766 40.7867 41.5401 40.5072 41.5401C40.2278 41.5401 40.0001 41.766 40.0001 42.0473V44.6175C40.0001 45.6509 40.4192 46.5887 41.0967 47.2662C41.7761 47.9437 42.7119 48.3628 43.7454 48.3628H52.9584V52.5942C52.9584 52.8737 53.1842 53.1014 53.4636 53.1014C53.7431 53.1014 53.9708 52.8737 53.9708 52.5942V29.7453C53.9708 28.7061 53.544 27.7243 52.7862 27.0124H69.4153C70.1694 27.0124 70.8525 27.3186 71.3482 27.8142C71.842 28.3081 72.1482 28.9913 72.1482 29.7453V59.2754L70.466 58.506C70.3377 58.4486 70.1846 58.4428 70.0468 58.506L67.8574 59.5069L65.668 58.506C65.5398 58.4486 65.3867 58.4428 65.2489 58.506L63.0595 59.5069L60.8701 58.506C60.7418 58.4486 60.5887 58.4428 60.4509 58.506L58.2616 59.5069L56.0722 58.506C55.944 58.4486 55.7908 58.4428 55.653 58.506L53.9708 59.2754V54.8889C53.9708 54.6095 53.743 54.3817 53.4636 54.3817ZM59.251 51.777H56.3018C56.0224 51.777 55.7947 52.0048 55.7946 52.2843V55.2334C55.7946 55.5128 56.0224 55.7386 56.3018 55.7386H59.251C59.5304 55.7386 59.7562 55.5129 59.7562 55.2334V52.2843C59.7562 52.0048 59.5304 51.777 59.251 51.777ZM56.8071 52.7895H58.7438V54.7263H56.8071V52.7895ZM59.251 46.5351H56.3018C56.0224 46.5351 55.7947 46.761 55.7946 47.0404V49.9895C55.7946 50.269 56.0224 50.4967 56.3018 50.4967H59.251C59.5304 50.4967 59.7562 50.269 59.7562 49.9895V47.0404C59.7562 46.761 59.5304 46.5351 59.251 46.5351ZM56.8071 47.5476H58.7438V49.4843H56.8071V47.5476ZM59.251 41.2913H56.3018C56.0224 41.2913 55.7947 41.519 55.7946 41.7985V44.7477C55.7946 45.0271 56.0224 45.2529 56.3018 45.2529H59.251C59.5304 45.2529 59.7562 45.0271 59.7562 44.7477V41.7985C59.7562 41.519 59.5304 41.2913 59.251 41.2913ZM56.8071 42.3037H58.7438V44.2405H56.8071V42.3037ZM60.6864 54.6764C60.6864 54.9558 60.9122 55.1817 61.1916 55.1817H68.5827C68.8622 55.1817 69.0899 54.9559 69.0899 54.6764C69.0899 54.397 68.8622 54.1693 68.5827 54.1693H61.1916C60.9122 54.1693 60.6864 54.397 60.6864 54.6764ZM60.6864 52.8411C60.6864 53.1206 60.9122 53.3483 61.1916 53.3483H70.2209C70.5004 53.3483 70.7281 53.1206 70.7281 52.8411C70.7281 52.5617 70.5004 52.334 70.2209 52.334H61.1916C60.9122 52.334 60.6864 52.5617 60.6864 52.8411ZM60.6864 49.4326C60.6864 49.7121 60.9122 49.9398 61.1916 49.9398H68.5827C68.8622 49.9398 69.0899 49.7121 69.0899 49.4326C69.0899 49.1532 68.8622 48.9274 68.5827 48.9274H61.1916C60.9122 48.9274 60.6864 49.1532 60.6864 49.4326ZM60.6864 47.5972C60.6864 47.8786 60.9122 48.1044 61.1916 48.1044H70.2209C70.5004 48.1044 70.7281 47.8786 70.7281 47.5972C70.7281 47.3179 70.5004 47.092 70.2209 47.092H61.1916C60.9122 47.092 60.6864 47.3178 60.6864 47.5972ZM60.6864 44.1908C60.6864 44.4701 60.9122 44.696 61.1916 44.696H68.5827C68.8622 44.696 69.0899 44.4701 69.0899 44.1908C69.0899 43.9113 68.8622 43.6835 68.5827 43.6835H61.1916C60.9122 43.6835 60.6864 43.9113 60.6864 44.1908ZM60.6864 42.3554C60.6864 42.6348 60.9122 42.8606 61.1916 42.8606H70.2209C70.5004 42.8606 70.7281 42.6348 70.7281 42.3554C70.7281 42.076 70.5004 41.8482 70.2209 41.8482H61.1916C60.9122 41.8482 60.6864 42.076 60.6864 42.3554ZM61.9969 39.1382H63.1154L63.1768 38.9125C63.2836 38.5214 63.3904 38.13 63.4969 37.739C63.6572 37.1521 63.8171 36.5652 63.977 35.9784C64.0227 35.9746 64.0682 35.9706 64.1136 35.9662C64.8647 35.8853 65.5814 35.6988 66.2532 35.3417C67.2443 34.8009 68.2606 33.8102 68.3239 32.6022C68.4316 30.5501 66.1157 30.0411 64.5433 30.0003C63.0694 29.9922 61.3926 30.1668 59.9374 30.4119C59.8581 30.604 59.783 30.8068 59.709 31.0069C59.6786 31.0889 59.6484 31.1704 59.6182 31.2506C59.6568 31.2456 59.6954 31.2406 59.734 31.2355C60.627 31.119 61.5201 31.0025 62.419 30.9449C62.4828 30.9408 62.5501 30.9363 62.6204 30.9317C63.6111 30.866 65.2022 30.7605 66.0185 31.0483L66.0614 31.0669C66.4294 31.2413 66.6904 31.4312 66.9021 31.7911C68.0488 33.7404 65.6602 34.7302 64.2066 35.1374L65.3045 31.1115H64.1863L63.0175 35.3962L62.9549 35.4099L62.4951 35.4354L63.6744 31.1115H62.5562L60.3671 39.1382H61.4853L62.3069 36.1253L62.8315 36.0792L61.9969 39.1382Z" fill="black"/>
</svg>
